<svg width="196" height="27" viewBox="0 0 196 27" fill="none" xmlns="http://www.w3.org/2000/svg">
<path d="M0.125 1.11743H5.51562C8.19792 1.11743 10.3789 1.788 12.0586 3.12915C13.7513 4.45728 14.5977 6.163 14.5977 8.24634C14.5977 9.913 14.0508 11.3844 12.957 12.6604C11.8633 13.9364 10.1576 14.8349 7.83984 15.3557L15.0859 26.0002H11.1992L4.28516 15.7659H3.52344V26.0002H0.125V1.11743ZM3.52344 4.12524V12.7971C8.53646 12.9013 11.043 11.4495 11.043 8.44165C11.043 7.38696 10.75 6.52759 10.1641 5.86353C9.57812 5.18644 8.79688 4.73071 7.82031 4.49634C6.84375 4.24894 5.41146 4.12524 3.52344 4.12524ZM19.3242 1.11743H33.1133V4.51587H22.6836V10.7268H33.1133V14.0862H22.6836V22.6409H33.1133V26.0002H19.3242V1.11743ZM46.4141 0.1604L58.1719 26.0002H54.6172L51.707 19.6331H41.1406L38.3086 26.0002H34.7734L46.4141 0.1604ZM46.4141 7.95337L42.4102 16.801H50.418L46.4141 7.95337ZM61.8047 1.11743H65.1641V22.6409H73.2695V26.0002H61.8047V1.11743Z" fill="#030303"/>
<path d="M87.4883 1.11743H101.277V4.51587H90.8477V10.7268H101.277V14.0862H90.8477V22.6409H101.277V26.0002H87.4883V1.11743ZM120.496 3.87134L117.742 6.07837C117.013 5.32316 116.349 4.76326 115.75 4.39868C115.164 4.02108 114.311 3.83228 113.191 3.83228C111.967 3.83228 110.971 4.11222 110.203 4.67212C109.448 5.21899 109.07 5.92863 109.07 6.80103C109.07 7.55623 109.402 8.22681 110.066 8.81274C110.73 9.38566 111.863 10.0172 113.465 10.7073C115.066 11.3844 116.31 12.0224 117.195 12.6213C118.094 13.2073 118.829 13.8583 119.402 14.5745C119.975 15.2906 120.398 16.0458 120.672 16.8401C120.958 17.6344 121.102 18.4742 121.102 19.3596C121.102 21.4299 120.346 23.1943 118.836 24.6526C117.339 26.1109 115.522 26.8401 113.387 26.8401C111.303 26.8401 109.461 26.2737 107.859 25.1409C106.271 23.995 105.047 22.2828 104.188 20.0042L107.586 19.0471C108.823 21.8466 110.717 23.2463 113.27 23.2463C114.507 23.2463 115.535 22.8752 116.355 22.1331C117.176 21.3909 117.586 20.4534 117.586 19.3206C117.586 18.6435 117.371 17.9664 116.941 17.2893C116.512 16.5992 115.978 16.0328 115.34 15.5901C114.702 15.1474 113.68 14.6461 112.273 14.0862C110.88 13.5133 109.806 12.9924 109.051 12.5237C108.309 12.0419 107.664 11.4755 107.117 10.8245C106.57 10.1604 106.167 9.50285 105.906 8.85181C105.659 8.20076 105.535 7.50415 105.535 6.76196C105.535 4.97811 106.251 3.46118 107.684 2.21118C109.116 0.948161 110.854 0.31665 112.898 0.31665C114.253 0.31665 115.626 0.609619 117.02 1.19556C118.413 1.78149 119.572 2.67342 120.496 3.87134ZM123.777 1.11743H138.992V4.51587H133.055V26.0002H129.695V4.51587H123.777V1.11743ZM151.297 0.1604L163.055 26.0002H159.5L156.59 19.6331H146.023L143.191 26.0002H139.656L151.297 0.1604ZM151.297 7.95337L147.293 16.801H155.301L151.297 7.95337ZM162.684 1.11743H177.898V4.51587H171.961V26.0002H168.602V4.51587H162.684V1.11743ZM181.473 1.11743H195.262V4.51587H184.832V10.7268H195.262V14.0862H184.832V22.6409H195.262V26.0002H181.473V1.11743Z" fill="#DBB96F"/>
</svg>
