<svg width="410" height="350" viewBox="0 0 410 350" fill="none" xmlns="http://www.w3.org/2000/svg">
<path d="M120.725 346.343C127.289 340.797 131.275 332.036 130.225 323.507C129.175 314.978 122.704 307.137 114.304 305.326C105.904 303.515 96.329 308.526 93.777 316.734C92.377 300.914 90.755 284.434 82.344 270.959C74.728 258.759 61.537 250.032 47.244 248.47C32.951 246.908 17.897 252.806 8.981 264.09C0.0650005 275.374 -2.119 291.777 4.127 304.732C8.727 314.275 17.202 321.377 26.081 327.155C54.7741 345.668 89.1878 353.197 122.99 348.355" fill="#F2F2F2"/>
<path d="M23.12 253.134C53.4304 277.863 77.0516 309.802 91.82 346.025C92.475 347.631 89.868 348.325 89.22 346.742C74.5674 310.976 51.1893 279.45 21.22 255.042C19.874 253.942 21.792 252.048 23.127 253.135L23.12 253.134Z" fill="white"/>
<path d="M125.259 346.343C118.696 340.797 114.709 332.036 115.759 323.507C116.809 314.978 123.28 307.137 131.68 305.326C140.08 303.515 149.655 308.526 152.207 316.734C153.607 300.914 155.229 284.434 163.64 270.959C171.256 258.759 184.446 250.032 198.74 248.47C213.034 246.908 228.087 252.806 237.003 264.09C245.919 275.374 248.103 291.777 241.857 304.732C237.257 314.275 228.782 321.377 219.903 327.155C191.21 345.668 156.797 353.196 122.995 348.355" fill="#F2F2F2"/>
<path d="M222.864 253.134C192.554 277.863 168.932 309.802 154.164 346.025C153.509 347.631 156.116 348.325 156.764 346.742C171.409 310.972 194.789 279.444 224.764 255.042C226.11 253.942 224.192 252.048 222.857 253.135L222.864 253.134Z" fill="white"/>
<path d="M144.736 157.443C156.879 157.443 166.722 147.6 166.722 135.457C166.722 123.315 156.879 113.471 144.736 113.471C132.593 113.471 122.75 123.315 122.75 135.457C122.75 147.6 132.593 157.443 144.736 157.443Z" fill="#F2F2F2"/>
<path d="M76.9469 59.6682H228.423V67.9552H96.2839C80.5932 67.9552 65.5451 74.1883 54.4501 85.2834C43.355 96.3784 37.1219 111.426 37.1219 127.117V221.272H20.5469C19.8143 221.272 19.1117 220.981 18.5936 220.463C18.0754 219.945 17.7842 219.243 17.7839 218.51V118.83C17.7839 103.139 24.0171 88.0914 35.1121 76.9964C46.2071 65.9013 61.2552 59.6682 76.9459 59.6682H76.9469Z" fill="#F2F2F2"/>
<path d="M106.083 346.805V220.918H142.962V346.805C142.96 347.651 142.623 348.461 142.025 349.059C141.427 349.657 140.617 349.994 139.771 349.996H109.271C108.426 349.993 107.616 349.656 107.019 349.058C106.422 348.46 106.085 347.65 106.083 346.805Z" fill="#413C3C"/>
<path d="M9.98401 218.436V116.071C10.0023 99.7753 16.4839 84.152 28.0069 72.6291C39.5298 61.1061 55.1531 54.6245 71.449 54.6062H227.714V221.982H13.53C12.5899 221.981 11.6885 221.607 11.0238 220.942C10.359 220.278 9.98507 219.376 9.98401 218.436ZM226.296 56.0242H71.448C55.5283 56.0422 40.2659 62.3742 29.0089 73.6311C17.752 84.888 11.42 100.151 11.402 116.07V218.436C11.4025 219 11.6269 219.541 12.0258 219.94C12.4248 220.339 12.9658 220.564 13.53 220.564H226.296V56.0242Z" fill="#3F3D56"/>
<path d="M144.736 146.805C141.351 146.802 138.106 145.455 135.713 143.062C133.32 140.669 131.974 137.424 131.97 134.039V42.5462C131.969 41.982 131.745 41.4411 131.346 41.0421C130.947 40.6432 130.406 40.4188 129.842 40.4182H80.197C79.2569 40.4172 78.3555 40.0433 77.6908 39.3785C77.026 38.7137 76.6521 37.8124 76.651 36.8723V3.54625C76.6521 2.60612 77.026 1.70478 77.6908 1.04001C78.3555 0.375234 79.2569 0.00130285 80.197 0.000244141H153.956C154.896 0.00130285 155.797 0.375234 156.462 1.04001C157.127 1.70478 157.501 2.60612 157.502 3.54625V134.046C157.498 137.431 156.152 140.676 153.759 143.069C151.366 145.462 148.121 146.809 144.736 146.812V146.805Z" fill="#DBB96F"/>
<path d="M233.389 53.1882C238.687 53.177 243.935 54.2094 248.833 56.2264C253.732 58.2434 258.185 61.2055 261.939 64.9437C265.693 68.6818 268.674 73.1227 270.712 78.0128C272.749 82.9029 273.804 88.1466 273.815 93.4442V209.976H353.248C356.439 209.97 359.502 211.231 361.763 213.482C364.024 215.734 365.298 218.791 365.305 221.982H192.963V93.4442C192.974 88.1466 194.029 82.9029 196.066 78.0128C198.104 73.1227 201.085 68.6818 204.839 64.9437C208.593 61.2055 213.046 58.2434 217.945 56.2264C222.843 54.2094 228.091 53.177 233.389 53.1882Z" fill="#413C3C"/>
<path d="M223.687 119.548L232.058 154.127L395.803 114.487L387.433 79.9062C387.332 79.4834 387.126 79.0929 386.833 78.771C386.541 78.4492 386.172 78.2064 385.761 78.0652C385.457 77.9586 385.136 77.9104 384.815 77.9232L290.163 28.9142C289.609 28.6316 288.971 28.5563 288.366 28.7018C287.761 28.8474 287.228 29.2043 286.863 29.7082L241.246 93.3212L224.046 117.309C224.014 117.352 223.992 117.4 223.981 117.452C223.971 117.504 223.971 117.558 223.983 117.609C223.633 118.191 223.527 118.888 223.687 119.548Z" fill="white"/>
<path d="M223.983 117.606C223.991 117.651 224.008 117.694 224.033 117.733C224.057 117.771 224.089 117.804 224.127 117.83C224.171 117.861 224.222 117.882 224.274 117.892C224.327 117.902 224.381 117.902 224.434 117.891C224.52 117.868 224.595 117.816 224.646 117.744L224.705 117.662L225.605 116.41L241.867 93.7402L287.467 30.1402C287.727 29.7798 288.108 29.5246 288.54 29.4209C288.973 29.3172 289.428 29.372 289.823 29.5752L383.741 78.2063L384.584 78.6432C384.617 78.6575 384.65 78.6699 384.684 78.6803C384.748 78.6688 384.812 78.6628 384.877 78.6622C384.965 78.6327 385.039 78.5704 385.083 78.4882C385.128 78.4013 385.137 78.3 385.108 78.2064C385.079 78.1127 385.015 78.0343 384.928 77.9882L384.812 77.9263L290.16 28.9182C289.606 28.6356 288.968 28.5603 288.363 28.7059C287.758 28.8514 287.225 29.2083 286.86 29.7122L241.243 93.3252L224.043 117.313C224.013 117.355 223.992 117.403 223.982 117.453C223.971 117.504 223.972 117.556 223.983 117.606Z" fill="#3F3D56"/>
<path d="M273.161 121.133L276.806 121.533L303.857 124.533L321.79 126.518L322.849 126.636L345.226 109.157L346.083 108.488L351.368 104.36L370.168 89.6752L370.281 88.6442L376.969 28.2792C377.06 27.448 376.818 26.6146 376.295 25.9617C375.773 25.3088 375.013 24.8897 374.182 24.7962L284.923 14.9082C284.092 14.8175 283.259 15.0598 282.606 15.5822C281.953 16.1046 281.534 16.8644 281.44 17.6952L276.723 60.2742L274.107 83.8812L271.767 105.001L270.682 114.809L270.365 117.65C270.275 118.483 270.518 119.317 271.043 119.97C271.567 120.623 272.329 121.041 273.161 121.133Z" fill="#E6E6E6"/>
<path d="M297.69 68.2212L336.354 72.5032L350.066 74.0212C351.289 74.1566 352.515 73.8008 353.475 73.032C354.436 72.2632 355.051 71.1444 355.187 69.9217C355.322 68.6991 354.966 67.4727 354.197 66.5125C353.428 65.5522 352.31 64.9366 351.087 64.8012L334.033 62.9122L298.714 58.9962C298.108 58.929 297.495 58.9817 296.91 59.1514C296.325 59.3211 295.778 59.6044 295.302 59.9852C294.827 60.3659 294.43 60.8367 294.137 61.3706C293.843 61.9045 293.657 62.491 293.589 63.0967C293.522 63.7025 293.575 64.3155 293.745 64.9008C293.914 65.4862 294.198 66.0324 294.578 66.5082C294.959 66.9841 295.43 67.3803 295.964 67.6742C296.498 67.9681 297.084 68.154 297.69 68.2212Z" fill="white"/>
<path d="M295.488 85.3253C295.588 85.3433 295.688 85.3613 295.788 85.3703L340.671 90.3423L348.165 91.1743C349.379 91.2928 350.592 90.9281 351.539 90.1592C352.487 89.3903 353.093 88.2791 353.227 87.0663C353.362 85.8534 353.013 84.6365 352.256 83.6791C351.499 82.7218 350.396 82.101 349.185 81.9513L338.349 80.7513L302.795 76.8113L296.812 76.1483C295.617 76.0181 294.418 76.3568 293.468 77.0932C292.518 77.8295 291.891 78.906 291.719 80.0956C291.547 81.2852 291.844 82.4951 292.547 83.4703C293.249 84.4455 294.303 85.1098 295.486 85.3233L295.488 85.3253Z" fill="white"/>
<path d="M290.409 100.491C290.777 101.102 291.28 101.62 291.881 102.004C292.481 102.389 293.162 102.63 293.87 102.708L312.27 104.745L345.034 108.375H345.041L346.089 108.492L351.374 104.364C351.406 104.051 351.406 103.735 351.374 103.421C351.263 102.369 350.796 101.386 350.05 100.635C349.305 99.8845 348.325 99.4103 347.274 99.2913L342.723 98.7852L324.668 96.7852L311.677 95.3442L294.897 93.4842C294.037 93.389 293.168 93.5362 292.387 93.9093C291.606 94.2823 290.945 94.8663 290.479 95.5953C290.013 96.3242 289.76 97.1691 289.749 98.0343C289.738 98.8995 289.969 99.7505 290.416 100.491H290.409Z" fill="white"/>
<path d="M316.248 47.3153L325.868 48.3803L330.117 48.8523L336.535 49.5623C337.75 49.6808 338.962 49.3161 339.909 48.5472C340.857 47.7783 341.463 46.6671 341.598 45.4543C341.732 44.2414 341.383 43.0245 340.626 42.0672C339.869 41.1098 338.766 40.489 337.555 40.3393L317.272 38.0943C316.664 38.0227 316.049 38.0719 315.46 38.2392C314.872 38.4065 314.322 38.6886 313.843 39.0691C313.364 39.4497 312.965 39.9213 312.669 40.4567C312.373 40.9921 312.186 41.5808 312.118 42.1889C312.051 42.7969 312.104 43.4123 312.275 43.9997C312.446 44.587 312.732 45.1347 313.116 45.6112C313.5 46.0877 313.974 46.4836 314.511 46.776C315.049 47.0685 315.64 47.2518 316.248 47.3153Z" fill="white"/>
<path d="M237.585 75.0174L249.314 123.466L268.889 127.188L286.997 130.635L306.425 134.335L312.633 135.516C312.996 135.586 313.37 135.577 313.729 135.491C314.089 135.405 314.426 135.243 314.718 135.016L319.698 131.126L322.851 128.664L345.228 111.185L331 52.4094C330.86 51.8247 330.553 51.2931 330.118 50.8783C329.736 50.5115 329.268 50.2466 328.757 50.1082C328.246 49.9698 327.708 49.9623 327.193 50.0864L239.909 71.2164C239.098 71.4136 238.397 71.9243 237.962 72.6368C237.526 73.3492 237.391 74.2052 237.585 75.0174Z" fill="#DBB96F"/>
<path d="M264.479 111.545C264.769 112.74 265.522 113.771 266.572 114.412C267.622 115.053 268.883 115.251 270.079 114.962L321.295 102.562C322.49 102.271 323.521 101.518 324.161 100.469C324.802 99.4188 325 98.1578 324.712 96.9622C324.699 96.9029 324.682 96.8445 324.662 96.7872C324.335 95.6345 323.574 94.653 322.54 94.0486C321.505 93.4442 320.277 93.2638 319.112 93.5452L267.896 105.945C266.701 106.236 265.67 106.989 265.029 108.038C264.389 109.088 264.191 110.35 264.479 111.545Z" fill="white"/>
<path d="M268.888 125.169L286.996 128.616L325.354 119.33C325.952 119.192 326.516 118.937 327.014 118.58C327.512 118.222 327.935 117.769 328.257 117.247C328.579 116.726 328.795 116.145 328.891 115.539C328.988 114.934 328.963 114.315 328.819 113.719C328.674 113.123 328.413 112.561 328.05 112.067C327.688 111.572 327.231 111.154 326.705 110.838C326.18 110.521 325.597 110.312 324.991 110.221C324.384 110.131 323.765 110.163 323.171 110.313L271.955 122.713C270.885 122.97 269.942 123.602 269.297 124.494C269.142 124.707 269.005 124.933 268.888 125.169Z" fill="white"/>
<path d="M306.424 132.313L312.632 133.494C312.995 133.564 313.369 133.555 313.728 133.469C314.088 133.383 314.425 133.221 314.717 132.994L319.697 129.104L306.424 132.313Z" fill="white"/>
<path d="M274.798 85.5612C275.088 86.7565 275.841 87.7877 276.891 88.4284C277.941 89.069 279.202 89.2668 280.398 88.9782L300.235 84.1782C301.43 83.8873 302.46 83.1343 303.101 82.0846C303.742 81.0348 303.94 79.7739 303.652 78.5782C303.498 77.9359 303.206 77.3345 302.798 76.8152C302.249 76.1132 301.51 75.584 300.669 75.2907C299.827 74.9974 298.919 74.9524 298.053 75.1612L278.216 79.9612C277.624 80.1045 277.066 80.363 276.573 80.7219C276.081 81.0809 275.665 81.5333 275.347 82.0533C275.03 82.5733 274.818 83.1508 274.724 83.7526C274.629 84.3545 274.655 84.9691 274.798 85.5612Z" fill="white"/>
<path d="M286.994 128.616L306.425 132.316L312.631 133.498C312.994 133.567 313.367 133.558 313.727 133.471C314.086 133.385 314.423 133.224 314.715 132.998L319.699 129.107L317.95 129.53L314.258 132.41C314.049 132.572 313.809 132.688 313.552 132.75C313.295 132.812 313.029 132.819 312.769 132.77L308.169 131.896L288.738 128.196L286.994 128.616ZM345.035 108.376L345.224 109.157L346.086 108.487L345.035 108.376ZM286.994 128.616L306.425 132.316L312.631 133.498C312.994 133.567 313.367 133.558 313.727 133.471C314.086 133.385 314.423 133.224 314.715 132.998L319.699 129.107L317.95 129.53L314.258 132.41C314.049 132.572 313.809 132.688 313.552 132.75C313.295 132.812 313.029 132.819 312.769 132.77L308.169 131.896L288.738 128.196L286.994 128.616ZM286.994 128.616L306.425 132.316L312.631 133.498C312.994 133.567 313.367 133.558 313.727 133.471C314.086 133.385 314.423 133.224 314.715 132.998L319.699 129.107L317.95 129.53L314.258 132.41C314.049 132.572 313.809 132.688 313.552 132.75C313.295 132.812 313.029 132.819 312.769 132.77L308.169 131.896L288.738 128.196L286.994 128.616ZM223.687 119.547L245.613 210.121C245.776 210.791 246.197 211.368 246.785 211.727C247.373 212.086 248.079 212.197 248.749 212.035L407.449 173.618C408.118 173.456 408.696 173.034 409.055 172.446C409.414 171.858 409.524 171.152 409.363 170.482L387.437 79.9082C387.336 79.4854 387.13 79.0949 386.837 78.7731C386.545 78.4512 386.176 78.2084 385.765 78.0672C385.461 77.9606 385.14 77.9124 384.819 77.9252C384.444 77.9359 384.077 78.0324 383.745 78.2072C383.592 78.2798 383.447 78.3693 383.314 78.4742L370.29 88.6442L351.368 103.42L345.031 108.37V108.375H345.026L321.788 126.515L317.946 129.521L314.254 132.401C314.045 132.563 313.805 132.679 313.548 132.741C313.291 132.803 313.024 132.81 312.765 132.761L308.165 131.887L288.734 128.187L269.286 124.487L226.686 116.381C226.322 116.309 225.947 116.317 225.586 116.405C225.102 116.524 224.661 116.779 224.318 117.14C224.186 117.282 224.069 117.437 223.968 117.602C223.616 118.184 223.509 118.881 223.668 119.542L223.687 119.547ZM286.994 128.616L306.425 132.316L312.631 133.498C312.994 133.567 313.367 133.558 313.727 133.471C314.086 133.385 314.423 133.224 314.715 132.998L319.699 129.107L317.95 129.53L314.258 132.41C314.049 132.572 313.809 132.688 313.552 132.75C313.295 132.812 313.029 132.819 312.769 132.77L308.169 131.896L288.738 128.196L286.994 128.616ZM286.994 128.616L306.425 132.316L312.631 133.498C312.994 133.567 313.367 133.558 313.727 133.471C314.086 133.385 314.423 133.224 314.715 132.998L319.699 129.107L317.95 129.53L314.258 132.41C314.049 132.572 313.809 132.688 313.552 132.75C313.295 132.812 313.029 132.819 312.769 132.77L308.169 131.896L288.738 128.196L286.994 128.616ZM286.994 128.616L306.425 132.316L312.631 133.498C312.994 133.567 313.367 133.558 313.727 133.471C314.086 133.385 314.423 133.224 314.715 132.998L319.699 129.107L317.95 129.53L314.258 132.41C314.049 132.572 313.809 132.688 313.552 132.75C313.295 132.812 313.029 132.819 312.769 132.77L308.169 131.896L288.738 128.196L286.994 128.616Z" fill="white"/>
<path d="M286.994 128.616L306.425 132.316L312.631 133.498C312.994 133.567 313.367 133.558 313.727 133.472C314.086 133.385 314.423 133.224 314.715 132.998L319.699 129.107L317.95 129.53L314.258 132.41C314.049 132.572 313.809 132.688 313.552 132.75C313.295 132.812 313.029 132.819 312.769 132.77L308.169 131.896L288.738 128.196L286.994 128.616ZM345.035 108.376L345.224 109.157L346.086 108.487L345.035 108.376ZM286.994 128.616L306.425 132.316L312.631 133.498C312.994 133.567 313.367 133.558 313.727 133.472C314.086 133.385 314.423 133.224 314.715 132.998L319.699 129.107L317.95 129.53L314.258 132.41C314.049 132.572 313.809 132.688 313.552 132.75C313.295 132.812 313.029 132.819 312.769 132.77L308.169 131.896L288.738 128.196L286.994 128.616ZM286.994 128.616L306.425 132.316L312.631 133.498C312.994 133.567 313.367 133.558 313.727 133.472C314.086 133.385 314.423 133.224 314.715 132.998L319.699 129.107L317.95 129.53L314.258 132.41C314.049 132.572 313.809 132.688 313.552 132.75C313.295 132.812 313.029 132.819 312.769 132.77L308.169 131.896L288.738 128.196L286.994 128.616ZM224.705 117.664L224.805 117.736C224.821 117.71 224.849 117.686 224.871 117.658C225.086 117.434 225.353 117.268 225.648 117.172C225.944 117.077 226.258 117.057 226.563 117.113L268.893 125.166L286.998 128.616L306.429 132.316L312.635 133.498C312.998 133.567 313.371 133.558 313.731 133.472C314.09 133.385 314.427 133.224 314.719 132.998L319.703 129.107L317.954 129.53L314.262 132.41C314.053 132.572 313.813 132.688 313.556 132.75C313.299 132.812 313.033 132.819 312.773 132.77L308.173 131.896L288.742 128.196L269.294 124.496L226.694 116.39C226.33 116.318 225.955 116.326 225.594 116.414L224.705 117.664ZM223.687 119.548L245.613 210.122C245.776 210.792 246.197 211.369 246.785 211.728C247.373 212.087 248.079 212.198 248.749 212.036L407.449 173.619C408.118 173.457 408.696 173.035 409.055 172.447C409.414 171.859 409.524 171.153 409.363 170.483L387.437 79.9093C387.336 79.4866 387.13 79.0963 386.837 78.7746C386.545 78.4529 386.176 78.2103 385.765 78.0693C385.461 77.9627 385.14 77.9145 384.819 77.9273C384.444 77.938 384.077 78.0344 383.745 78.2093C383.592 78.2818 383.447 78.3714 383.314 78.4763L370.29 88.6463L351.368 103.421L345.031 108.371V108.376H345.026L321.788 126.516L317.946 129.522L314.254 132.402C314.045 132.564 313.805 132.68 313.548 132.742C313.291 132.804 313.024 132.811 312.765 132.762L308.165 131.888L288.734 128.188L269.285 124.488L226.685 116.382C226.321 116.31 225.945 116.318 225.585 116.406C225.101 116.525 224.66 116.78 224.317 117.141C224.185 117.283 224.068 117.438 223.967 117.603C223.615 118.185 223.508 118.882 223.667 119.543L223.687 119.548ZM224.41 119.373C224.345 119.106 224.341 118.828 224.397 118.559C224.454 118.29 224.57 118.038 224.737 117.819C224.752 117.787 224.774 117.759 224.801 117.736C224.817 117.71 224.845 117.686 224.867 117.658C225.082 117.435 225.349 117.268 225.644 117.173C225.94 117.078 226.254 117.058 226.559 117.114L268.889 125.166L286.994 128.616L306.425 132.316L312.631 133.498C312.994 133.567 313.367 133.558 313.727 133.472C314.086 133.385 314.423 133.224 314.715 132.998L319.699 129.107L322.851 126.645L345.225 109.164L346.087 108.494L351.368 104.361L370.175 89.6743L383.775 79.0563C383.982 78.8952 384.22 78.78 384.475 78.7183C384.546 78.7011 384.618 78.6894 384.691 78.6833C384.755 78.6715 384.819 78.6652 384.884 78.6643C385.101 78.6609 385.317 78.6947 385.523 78.7643C385.817 78.8657 386.08 79.0392 386.29 79.2687C386.5 79.4982 386.649 79.7765 386.723 80.0783L408.649 170.652C408.707 170.89 408.717 171.136 408.679 171.377C408.642 171.619 408.557 171.85 408.43 172.059C408.302 172.267 408.135 172.449 407.938 172.593C407.74 172.737 407.516 172.84 407.279 172.897L248.579 211.314C248.1 211.429 247.596 211.349 247.176 211.092C246.756 210.835 246.455 210.422 246.34 209.943L224.41 119.373ZM286.994 128.617L306.425 132.317L312.631 133.499C312.994 133.568 313.367 133.559 313.727 133.473C314.086 133.386 314.423 133.225 314.715 132.999L319.699 129.108L317.95 129.53L314.258 132.41C314.049 132.572 313.809 132.689 313.552 132.751C313.295 132.813 313.029 132.82 312.769 132.771L308.169 131.897L288.738 128.197L286.994 128.617ZM286.994 128.617L306.425 132.317L312.631 133.499C312.994 133.568 313.367 133.559 313.727 133.473C314.086 133.386 314.423 133.225 314.715 132.999L319.699 129.108L317.95 129.53L314.258 132.41C314.049 132.572 313.809 132.689 313.552 132.751C313.295 132.813 313.029 132.82 312.769 132.771L308.169 131.897L288.738 128.197L286.994 128.617ZM286.994 128.617L306.425 132.317L312.631 133.499C312.994 133.568 313.367 133.559 313.727 133.473C314.086 133.386 314.423 133.225 314.715 132.999L319.699 129.108L317.95 129.53L314.258 132.41C314.049 132.572 313.809 132.689 313.552 132.751C313.295 132.813 313.029 132.82 312.769 132.771L308.169 131.897L288.738 128.197L286.994 128.617Z" fill="#3F3D56"/>
<path d="M366.085 155.823C365.728 154.339 365.974 152.774 366.769 151.471C367.564 150.168 368.844 149.233 370.327 148.872L390.356 144.023C391.84 143.664 393.406 143.909 394.71 144.704C396.014 145.5 396.948 146.781 397.308 148.265C397.667 149.749 397.422 151.315 396.626 152.619C395.831 153.923 394.55 154.857 393.066 155.216L373.036 160.065C371.552 160.423 369.987 160.177 368.683 159.381C367.38 158.586 366.446 157.307 366.085 155.823Z" fill="#DBB96F"/>
<path d="M144.736 139.004C147.478 139.004 149.701 136.781 149.701 134.039C149.701 131.297 147.478 129.074 144.736 129.074C141.994 129.074 139.771 131.297 139.771 134.039C139.771 136.781 141.994 139.004 144.736 139.004Z" fill="white"/>
</svg>
