<svg width="296" height="180" viewBox="0 0 296 180" fill="none" xmlns="http://www.w3.org/2000/svg">
<path d="M36.044 180L35.5376 179.88C41.3034 154.382 55.5602 131.599 75.9711 115.266C96.382 98.9324 121.736 90.0172 147.878 89.9817C174.019 89.9461 199.398 98.7922 219.853 115.07C240.308 131.348 254.627 154.092 260.462 179.574L259.956 179.694C254.264 154.297 240.064 131.607 219.709 115.386C199.355 99.1644 174.068 90.3861 148.041 90.5058C94.8041 90.5058 47.7055 128.144 36.044 180Z" fill="#3F3D56"/>
<path d="M108.691 32.1308C116.481 32.1308 122.796 25.8154 122.796 18.0249C122.796 10.2344 116.481 3.91895 108.691 3.91895C100.9 3.91895 94.5846 10.2344 94.5846 18.0249C94.5846 25.8154 100.9 32.1308 108.691 32.1308Z" fill="#FF6584"/>
<path d="M47.9204 176.795C48.2705 177.858 48.9528 178.781 49.8668 179.428C50.3892 178.426 50.5153 177.263 50.22 176.172C49.9248 175.081 49.2298 174.142 48.2732 173.54C47.8099 174.559 47.6862 175.7 47.9204 176.795Z" fill="#3F3D56"/>
<path d="M48.5672 176.446C49.3266 177.269 49.8015 178.314 49.922 179.428C48.7921 179.397 47.715 178.943 46.9051 178.154C46.0951 177.366 45.6115 176.301 45.5504 175.173C46.6664 175.263 47.7239 175.709 48.5672 176.446Z" fill="#DBB96F"/>
<path d="M81.4218 176.795C81.7719 177.858 82.4541 178.781 83.3681 179.428C83.8905 178.426 84.0166 177.263 83.7214 176.172C83.4261 175.081 82.7311 174.142 81.7745 173.54C81.3112 174.559 81.1876 175.7 81.4218 176.795Z" fill="#3F3D56"/>
<path d="M82.0675 176.446C82.8268 177.269 83.3018 178.314 83.4222 179.428C82.2923 179.397 81.2153 178.943 80.4053 178.154C79.5954 177.366 79.1117 176.301 79.0507 175.173C80.1667 175.263 81.2242 175.709 82.0675 176.446Z" fill="#DBB96F"/>
<path d="M88.0638 47.2616L82.7599 43.0184L112.462 16.4985H187.776V39.836L138.98 72.7159L88.0638 47.2616Z" fill="#3F3D56"/>
<path d="M201.513 31.3748V17.0277H191.514V20.5436L187.782 16.5009L163.384 43.0207L153.837 49.3807L139.034 157.535L161.354 179.855H213.234V44.0791L201.513 31.3748Z" fill="#CCCCCC"/>
<path d="M163.382 43.0184H82.7599V179.862H163.382V43.0184Z" fill="#F2F2F2"/>
<path d="M128.906 146.447H114.055V179.862H128.906V146.447Z" fill="#CCCCCC"/>
<path d="M98.1426 155.994V150.69H91.7826V155.994H98.1426Z" fill="#3F3D56"/>
<path d="M97.6121 160.238H91.7777V165.542H98.1377V160.238H97.6121Z" fill="#3F3D56"/>
<path d="M108.751 150.69H102.386V155.994H108.751V150.69Z" fill="#3F3D56"/>
<path d="M108.751 160.238H102.386V165.542H108.751V160.238Z" fill="#3F3D56"/>
<path d="M141.635 155.994V150.69H135.275V155.994H141.635Z" fill="#3F3D56"/>
<path d="M141.105 160.238H135.27V165.542H141.63V160.238H141.105Z" fill="#3F3D56"/>
<path d="M152.243 150.69H145.878V155.994H152.243V150.69Z" fill="#3F3D56"/>
<path d="M152.243 160.238H145.878V165.542H152.243V160.238Z" fill="#3F3D56"/>
<path d="M186.189 49.9197V44.6157H179.829V49.9197H186.189Z" fill="#3F3D56"/>
<path d="M185.658 54.158H179.824V59.4619H186.184V54.158H185.658Z" fill="#3F3D56"/>
<path d="M196.797 44.6108H190.432V49.9148H196.797V44.6108Z" fill="#3F3D56"/>
<path d="M196.797 54.158H190.432V59.4619H196.797V54.158Z" fill="#3F3D56"/>
<path d="M186.189 79.6171V74.3131H179.829V79.6171H186.189Z" fill="#3F3D56"/>
<path d="M185.658 83.8602H179.824V89.1642H186.184V83.8602H185.658Z" fill="#3F3D56"/>
<path d="M196.797 74.3131H190.432V79.6171H196.797V74.3131Z" fill="#3F3D56"/>
<path d="M196.797 83.8602H190.432V89.1642H196.797V83.8602Z" fill="#3F3D56"/>
<path d="M186.189 109.319V104.015H179.829V109.319H186.189Z" fill="#3F3D56"/>
<path d="M185.658 113.562H179.824V118.866H186.184V113.562H185.658Z" fill="#3F3D56"/>
<path d="M196.797 104.015H190.432V109.319H196.797V104.015Z" fill="#3F3D56"/>
<path d="M196.797 113.562H190.432V118.866H196.797V113.562Z" fill="#3F3D56"/>
<path d="M186.189 139.022V133.721H179.829V139.025H186.189V139.022Z" fill="#3F3D56"/>
<path d="M185.658 143.265H179.824V148.569H186.184V143.265H185.658Z" fill="#3F3D56"/>
<path d="M196.797 133.718H190.432V139.022H196.797V133.718Z" fill="#3F3D56"/>
<path d="M196.797 143.265H190.432V148.569H196.797V143.265Z" fill="#3F3D56"/>
<path d="M153.304 49.9136H91.7778V62.6431H153.304V49.9136Z" fill="#3F3D56"/>
<path d="M153.304 75.3739H91.7778V88.1034H153.304V75.3739Z" fill="#3F3D56"/>
<path d="M153.304 100.833H91.7778V113.562H153.304V100.833Z" fill="#3F3D56"/>
<path d="M153.304 126.292H91.7778V139.022H153.304V126.292Z" fill="#3F3D56"/>
<path d="M295.638 179.329H0.362183V179.849H295.638V179.329Z" fill="#3F3D56"/>
<path d="M51.3356 119.361H49.8104V179.625H51.3356V119.361Z" fill="#3F3D56"/>
<path d="M65.4151 127.041C65.5123 148.114 50.6864 165.266 50.6864 165.266C50.6864 165.266 35.7033 148.252 35.6061 127.179C35.5089 106.106 50.3348 88.9542 50.3348 88.9542C50.3348 88.9542 65.3179 105.968 65.4151 127.041Z" fill="#DBB96F"/>
<path opacity="0.1" d="M65.4151 127.041C65.5123 148.114 50.6864 165.266 50.6864 165.266C50.6864 165.266 35.7033 148.252 35.6061 127.179C35.5089 106.106 50.3348 88.9542 50.3348 88.9542C50.3348 88.9542 65.3179 105.968 65.4151 127.041Z" fill="black"/>
<path d="M31.5008 119.361H29.9756V179.625H31.5008V119.361Z" fill="#3F3D56"/>
<path d="M45.5815 127.041C45.6787 148.114 30.8528 165.265 30.8528 165.265C30.8528 165.265 15.8696 148.251 15.7724 127.178C15.6752 106.104 30.5012 88.9529 30.5012 88.9529C30.5012 88.9529 45.4843 105.968 45.5815 127.041Z" fill="#DBB96F"/>
<path d="M245.921 42.9331C233.903 42.9883 224.12 43.1659 224.12 43.1659C224.12 43.1659 235.748 27.764 245.876 33.47C252.846 37.2532 260.127 40.4301 267.641 42.9655C267.641 42.9655 257.938 42.8779 245.921 42.9331Z" fill="#F2F2F2"/>
<path d="M45.6944 72.5395C33.6764 72.5947 23.894 72.7723 23.894 72.7723C23.894 72.7723 35.522 57.3703 45.6499 63.0763C52.6191 66.8596 59.9007 70.0365 67.4143 72.5719C67.4143 72.5719 57.7111 72.4843 45.6944 72.5395Z" fill="#F2F2F2"/>
<path d="M89.3239 10.7314C77.3059 10.7866 67.5236 10.9642 67.5236 10.9642C67.5236 10.9642 79.1515 -4.43777 89.2795 1.2682C96.2486 5.05145 103.53 8.22834 111.044 10.7638C111.044 10.7638 101.341 10.6762 89.3239 10.7314Z" fill="#F2F2F2"/>
<path d="M270.681 119.361H269.156V179.625H270.681V119.361Z" fill="#3F3D56"/>
<path d="M284.765 127.041C284.862 148.114 270.036 165.266 270.036 165.266C270.036 165.266 255.053 148.252 254.956 127.179C254.858 106.106 269.684 88.9542 269.684 88.9542C269.684 88.9542 284.662 105.968 284.765 127.041Z" fill="#DBB96F"/>
<path d="M214.527 142.218H229.924V138.498H238.418V142.218H254.346V158.678H238.418V179.383H229.924V158.678H214.527L206.562 149.651L214.527 142.218Z" fill="#3F3D56"/>
</svg>
