<svg width="336" height="180" viewBox="0 0 336 180" fill="none" xmlns="http://www.w3.org/2000/svg">
<path d="M73.0638 179.613H72.3138C72.1608 170.326 68.3644 161.472 61.7432 154.959C55.122 148.446 46.2063 144.796 36.9186 144.796C27.6309 144.796 18.7152 148.446 12.094 154.959C5.4727 161.472 1.67631 170.326 1.52336 179.613H0.769775C0.769775 174.865 1.70478 170.165 3.52139 165.779C5.33801 161.394 8.00067 157.409 11.3573 154.052C14.714 150.695 18.699 148.033 23.0847 146.216C27.4704 144.399 32.1709 143.464 36.918 143.464C41.665 143.464 46.3656 144.399 50.7513 146.216C55.137 148.033 59.1219 150.695 62.4786 154.052C65.8353 157.409 68.4979 161.394 70.3146 165.779C72.1312 170.165 73.0662 174.865 73.0662 179.613H73.0638Z" fill="#3F3D56"/>
<path d="M335.139 179.613H334.387C334.234 170.326 330.437 161.472 323.816 154.959C317.195 148.446 308.279 144.796 298.991 144.796C289.704 144.796 280.788 148.446 274.167 154.959C267.545 161.472 263.749 170.326 263.596 179.613H262.843C262.843 170.025 266.651 160.831 273.43 154.052C280.209 147.273 289.404 143.464 298.991 143.464C308.578 143.464 317.772 147.273 324.551 154.052C331.33 160.831 335.139 170.025 335.139 179.613Z" fill="#3F3D56"/>
<path d="M246.651 93.383H245.897C245.897 76.2062 239.074 59.733 226.928 47.5871C214.782 35.4413 198.309 28.6178 181.132 28.6178C163.955 28.6178 147.482 35.4413 135.336 47.5871C123.19 59.733 116.367 76.2062 116.367 93.383H115.613C115.613 76.0061 122.516 59.3408 134.804 47.0534C147.091 34.766 163.756 27.863 181.133 27.863C198.51 27.863 215.176 34.766 227.463 47.0534C239.75 59.3408 246.653 76.0061 246.653 93.383H246.651Z" fill="#3F3D56"/>
<path d="M55.5547 29.7482C63.7693 29.7482 70.4287 23.0889 70.4287 14.8742C70.4287 6.65956 63.7693 0.000244141 55.5547 0.000244141C47.34 0.000244141 40.6807 6.65956 40.6807 14.8742C40.6807 23.0889 47.34 29.7482 55.5547 29.7482Z" fill="#FF6584"/>
<path d="M58.7144 117.25L84.2671 86.8191H134.505L165.206 116.723L164.586 117.121H164.806V179.321H58.7491V117.121L58.7144 117.25Z" fill="#CCCCCC"/>
<path d="M74.0875 104.02H79.8799V83.969H74.0875V104.02Z" fill="#3F3D56"/>
<path d="M83.8684 86.4194L115.367 123.348V179.32H58.7488V116.32L83.8684 86.4194Z" fill="#3F3D56"/>
<path d="M108.088 130.678H96.5249V142.5H108.088V130.678Z" fill="#3F3D56"/>
<path d="M108.088 146.764H96.5249V158.586H108.088V146.764Z" fill="#3F3D56"/>
<path d="M108.088 130.678H96.5249V142.5H108.088V130.678Z" fill="white"/>
<path d="M108.088 146.764H96.5249V158.586H108.088V146.764Z" fill="white"/>
<path d="M92.0969 130.678H80.5337V142.5H92.0969V130.678Z" fill="#3F3D56"/>
<path d="M92.0969 146.764H80.5337V158.586H92.0969V146.764Z" fill="#3F3D56"/>
<path d="M92.0969 130.678H80.5337V142.5H92.0969V130.678Z" fill="white"/>
<path d="M92.0969 146.764H80.5337V158.586H92.0969V146.764Z" fill="white"/>
<path d="M76.1059 130.678H64.5427V142.5H76.1059V130.678Z" fill="#3F3D56"/>
<path d="M76.1059 146.764H64.5427V158.586H76.1059V146.764Z" fill="#3F3D56"/>
<path d="M76.1059 130.678H64.5427V142.5H76.1059V130.678Z" fill="white"/>
<path d="M76.1059 146.764H64.5427V158.586H76.1059V146.764Z" fill="white"/>
<path d="M188.662 15.0615H183.391V28.2411H188.662V15.0615Z" fill="#DBB96F"/>
<path d="M188.287 27.1118H143.478V179.611H188.287V27.1118Z" fill="#3F3D56"/>
<path d="M206.36 27.1118H188.285V179.611H206.36V27.1118Z" fill="#F2F2F2"/>
<path d="M158.35 40.2902H151.573V47.0678H158.35V40.2902Z" fill="white"/>
<path d="M169.27 40.2902H162.493V47.0678H169.27V40.2902Z" fill="white"/>
<path d="M180.19 40.2902H173.412V47.0678H180.19V40.2902Z" fill="white"/>
<path d="M158.539 55.7281H151.761V62.5057H158.539V55.7281Z" fill="white"/>
<path d="M169.459 55.7281H162.681V62.5057H169.459V55.7281Z" fill="white"/>
<path d="M180.378 55.7281H173.601V62.5057H180.378V55.7281Z" fill="white"/>
<path d="M158.727 71.1675H151.949V77.9451H158.727V71.1675Z" fill="white"/>
<path d="M169.647 71.1675H162.869V77.9451H169.647V71.1675Z" fill="white"/>
<path d="M180.567 71.1675H173.79V77.9451H180.567V71.1675Z" fill="white"/>
<path d="M158.915 86.6055H152.138V93.3831H158.915V86.6055Z" fill="white"/>
<path d="M169.835 86.6055H163.058V93.3831H169.835V86.6055Z" fill="white"/>
<path d="M180.755 86.6055H173.978V93.3831H180.755V86.6055Z" fill="white"/>
<path d="M159.104 102.043H152.326V108.821H159.104V102.043Z" fill="white"/>
<path d="M170.024 102.043H163.246V108.821H170.024V102.043Z" fill="white"/>
<path d="M180.944 102.043H174.166V108.821H180.944V102.043Z" fill="white"/>
<path d="M159.292 117.481H152.515V124.259H159.292V117.481Z" fill="white"/>
<path d="M170.212 117.481H163.435V124.259H170.212V117.481Z" fill="white"/>
<path d="M181.131 117.481H174.354V124.259H181.131V117.481Z" fill="white"/>
<path d="M159.481 132.919H152.703V139.697H159.481V132.919Z" fill="white"/>
<path d="M170.399 132.919H163.622V139.697H170.399V132.919Z" fill="white"/>
<path d="M181.319 132.919H174.542V139.697H181.319V132.919Z" fill="white"/>
<path d="M159.669 148.359H152.891V155.136H159.669V148.359Z" fill="white"/>
<path d="M170.588 148.359H163.81V155.136H170.588V148.359Z" fill="white"/>
<path d="M170.588 166.432H163.81V179.235H170.588V166.432Z" fill="white"/>
<path d="M181.508 148.359H174.73V155.136H181.508V148.359Z" fill="white"/>
<path d="M191.297 15.0615H188.285V27.8643H191.297V15.0615Z" fill="#3F3D56"/>
<path d="M245.144 82.0863H239.872V89.8971H245.144V82.0863Z" fill="#DBB96F"/>
<path d="M244.768 89.2288H199.959V179.612H244.768V89.2288Z" fill="#3F3D56"/>
<path d="M262.841 89.2288H244.767V179.612H262.841V89.2288Z" fill="#CCCCCC"/>
<path d="M215.585 102.043H208.808V108.821H215.585V102.043Z" fill="white"/>
<path d="M226.505 102.043H219.728V108.821H226.505V102.043Z" fill="white"/>
<path d="M237.424 102.043H230.646V108.821H237.424V102.043Z" fill="white"/>
<path d="M215.774 117.481H208.996V124.259H215.774V117.481Z" fill="white"/>
<path d="M226.694 117.481H219.916V124.259H226.694V117.481Z" fill="white"/>
<path d="M237.613 117.481H230.835V124.259H237.613V117.481Z" fill="white"/>
<path d="M215.962 132.919H209.185V139.697H215.962V132.919Z" fill="white"/>
<path d="M226.881 132.919H220.104V139.697H226.881V132.919Z" fill="white"/>
<path d="M237.801 132.919H231.023V139.697H237.801V132.919Z" fill="white"/>
<path d="M216.15 148.359H209.373V155.136H216.15V148.359Z" fill="white"/>
<path d="M227.069 148.359H220.292V155.136H227.069V148.359Z" fill="white"/>
<path d="M227.069 166.432H220.292V179.235H227.069V166.432Z" fill="white"/>
<path d="M237.989 148.359H231.212V155.136H237.989V148.359Z" fill="white"/>
<path d="M247.779 82.0863H244.767V89.6739H247.779V82.0863Z" fill="#3F3D56"/>
<path d="M335.23 179.157H0.859619V180H335.23V179.157Z" fill="#3F3D56"/>
<path d="M276.645 161.944C282.06 161.944 286.45 157.554 286.45 152.139C286.45 146.723 282.06 142.333 276.645 142.333C271.23 142.333 266.84 146.723 266.84 152.139C266.84 157.554 271.23 161.944 276.645 161.944Z" fill="#DBB96F"/>
<path opacity="0.2" d="M283.94 145.59C284.853 147.729 284.977 150.124 284.288 152.346C283.599 154.568 282.143 156.472 280.179 157.72C278.216 158.967 275.873 159.475 273.569 159.155C271.265 158.834 269.15 157.704 267.602 155.968C268.161 157.275 268.997 158.445 270.053 159.397C271.108 160.349 272.358 161.06 273.716 161.481C275.074 161.901 276.507 162.022 277.916 161.834C279.325 161.646 280.677 161.154 281.877 160.391C283.077 159.629 284.097 158.615 284.866 157.42C285.635 156.225 286.135 154.876 286.331 153.468C286.528 152.06 286.416 150.627 286.003 149.266C285.59 147.906 284.885 146.652 283.94 145.59Z" fill="black"/>
<path d="M276.674 152.139H276.701L277.181 179.938H276.158L276.674 152.139Z" fill="#3F3D56"/>
<path d="M278.457 167.282L278.231 166.853L276.611 167.706L276.837 168.135L278.457 167.282Z" fill="#3F3D56"/>
<path d="M305.474 152.575C313.709 152.575 320.385 145.899 320.385 137.664C320.385 129.429 313.709 122.753 305.474 122.753C297.238 122.753 290.562 129.429 290.562 137.664C290.562 145.899 297.238 152.575 305.474 152.575Z" fill="#DBB96F"/>
<path opacity="0.2" d="M316.565 127.705C317.952 130.958 318.137 134.597 317.089 137.973C316.041 141.349 313.828 144.244 310.844 146.14C307.86 148.035 304.299 148.809 300.797 148.323C297.296 147.838 294.08 146.123 291.725 143.487C292.574 145.477 293.844 147.258 295.45 148.708C297.056 150.158 298.957 151.241 301.023 151.882C303.089 152.523 305.27 152.707 307.414 152.421C309.558 152.136 311.614 151.387 313.44 150.227C315.266 149.067 316.818 147.523 317.988 145.704C319.157 143.884 319.917 141.832 320.215 139.689C320.512 137.547 320.339 135.365 319.709 133.296C319.079 131.226 318.006 129.319 316.565 127.705Z" fill="black"/>
<path d="M305.515 137.665H305.555L306.292 179.94H304.732L305.515 137.665Z" fill="#3F3D56"/>
<path d="M308.229 160.691L307.886 160.039L305.421 161.337L305.764 161.989L308.229 160.691Z" fill="#3F3D56"/>
<path d="M10.8052 161.567C16.2205 161.567 20.6104 157.177 20.6104 151.762C20.6104 146.347 16.2205 141.957 10.8052 141.957C5.38994 141.957 1 146.347 1 151.762C1 157.177 5.38994 161.567 10.8052 161.567Z" fill="#DBB96F"/>
<path opacity="0.2" d="M18.1 145.213C19.0136 147.353 19.1371 149.747 18.4482 151.969C17.7594 154.191 16.3031 156.096 14.3395 157.343C12.3759 158.59 10.0329 159.099 7.72888 158.778C5.42489 158.457 3.31001 157.327 1.76196 155.591C2.32068 156.898 3.15689 158.068 4.21268 159.02C5.26848 159.972 6.5186 160.683 7.87644 161.104C9.23428 161.524 10.6674 161.645 12.0764 161.457C13.4855 161.269 14.8368 160.777 16.0368 160.015C17.2367 159.252 18.2566 158.239 19.0259 157.043C19.7951 155.848 20.2952 154.499 20.4916 153.091C20.6879 151.683 20.5758 150.25 20.1631 148.889C19.7503 147.529 19.0468 146.275 18.1012 145.213H18.1Z" fill="black"/>
<path d="M10.8341 151.763H10.8617L11.3417 179.563H10.3181L10.8341 151.763Z" fill="#3F3D56"/>
<path d="M12.6177 166.905L12.3918 166.476L10.7715 167.329L10.9973 167.758L12.6177 166.905Z" fill="#3F3D56"/>
<path d="M229.108 14.0641L232.575 11.2921C231.704 11.0982 230.792 11.2281 230.009 11.6576C229.227 12.0872 228.628 12.7869 228.323 13.6261C226.878 13.1465 225.304 13.2437 223.929 13.8973L230.865 16.4173C230.515 15.4817 229.906 14.6653 229.108 14.0641Z" fill="#3F3D56"/>
<path d="M55.1443 27.9962L58.6111 25.2242C57.7398 25.0303 56.8277 25.1602 56.0453 25.5898C55.2628 26.0193 54.6636 26.719 54.3595 27.5582C52.9145 27.0786 51.3401 27.1758 49.9651 27.8294L56.9011 30.3494C56.5513 29.4139 55.9419 28.5975 55.1443 27.9962Z" fill="#3F3D56"/>
<path d="M281.824 42.3051L285.291 39.5331C284.42 39.3391 283.508 39.4691 282.725 39.8986C281.943 40.3281 281.344 41.0279 281.039 41.8671C279.595 41.3875 278.02 41.4847 276.645 42.1383L283.581 44.6583C283.231 43.7227 282.622 42.9063 281.824 42.3051Z" fill="#3F3D56"/>
<path d="M83.7617 20.4651L87.2285 17.6931C86.3572 17.4992 85.4452 17.6291 84.6627 18.0586C83.8803 18.4882 83.281 19.1879 82.9769 20.0271C81.5319 19.5475 79.9576 19.6447 78.5825 20.2983L85.5185 22.8183C85.1688 21.8827 84.5594 21.0663 83.7617 20.4651Z" fill="#3F3D56"/>
<path d="M90.1638 50.5888L93.6306 47.8168C92.7593 47.6228 91.8473 47.7528 91.0648 48.1823C90.2824 48.6118 89.6831 49.3116 89.379 50.1507C87.934 49.6712 86.3597 49.7683 84.9846 50.422L91.9206 52.942C91.5709 52.0064 90.9615 51.19 90.1638 50.5888Z" fill="#3F3D56"/>
<path d="M224.966 66.4035L228.432 63.6315C227.561 63.4375 226.649 63.5675 225.867 63.997C225.084 64.4265 224.485 65.1263 224.181 65.9654C222.736 65.4859 221.161 65.583 219.786 66.2367L226.722 68.7567C226.373 67.821 225.763 67.0046 224.966 66.4035Z" fill="#3F3D56"/>
<path d="M40.6817 171.703H17.3357V172.457H20.9765V179.611H21.7301V172.457H35.9105V179.611H36.6641V172.457H40.6817V171.703Z" fill="#3F3D56"/>
<path d="M64.4035 174.716C63.482 174.717 62.5767 174.96 61.7791 175.421C60.9692 174.688 59.9639 174.206 58.8852 174.033C57.8066 173.861 56.7011 174.005 55.7029 174.449C54.7048 174.893 53.857 175.617 53.2625 176.533C52.6681 177.45 52.3525 178.519 52.3543 179.611H69.6607C69.5662 178.282 68.9713 177.037 67.9957 176.129C67.0201 175.221 65.7365 174.716 64.4035 174.716Z" fill="#3F3D56"/>
<path d="M153.644 174.716C152.722 174.717 151.817 174.96 151.019 175.421C150.209 174.688 149.204 174.206 148.125 174.033C147.047 173.861 145.941 174.005 144.943 174.449C143.945 174.893 143.097 175.617 142.503 176.533C141.908 177.45 141.593 178.519 141.594 179.611H158.901C158.806 178.282 158.212 177.037 157.236 176.129C156.26 175.221 154.977 174.716 153.644 174.716Z" fill="#3F3D56"/>
<path d="M212.008 174.716C211.087 174.717 210.181 174.96 209.384 175.421C208.574 174.688 207.569 174.206 206.49 174.033C205.411 173.861 204.306 174.005 203.308 174.449C202.309 174.893 201.462 175.617 200.867 176.533C200.273 177.45 199.957 178.519 199.959 179.611H217.265C217.171 178.282 216.576 177.037 215.6 176.129C214.625 175.221 213.341 174.716 212.008 174.716Z" fill="#3F3D56"/>
<path d="M288.822 174.716C287.901 174.717 286.996 174.96 286.198 175.421C285.388 174.688 284.383 174.206 283.304 174.033C282.226 173.861 281.12 174.005 280.122 174.449C279.124 174.893 278.276 175.617 277.681 176.533C277.087 177.45 276.771 178.519 276.773 179.611H294.08C293.985 178.282 293.39 177.037 292.415 176.129C291.439 175.221 290.155 174.716 288.822 174.716Z" fill="#3F3D56"/>
<path d="M325.725 174.717C324.803 174.717 323.898 174.96 323.1 175.421C322.29 174.688 321.285 174.206 320.206 174.033C319.128 173.861 318.022 174.005 317.024 174.449C316.026 174.893 315.178 175.617 314.584 176.533C313.989 177.45 313.674 178.519 313.676 179.612H330.981C330.886 178.282 330.292 177.038 329.316 176.13C328.341 175.221 327.057 174.716 325.725 174.717Z" fill="#3F3D56"/>
<path d="M49.3423 153.253H43.3171V159.279H46.1095V179.579H46.8631V159.279H49.3423V153.253Z" fill="#3F3D56"/>
<path d="M40.7273 169.451H17.3813V170.205H40.7273V169.451Z" fill="#3F3D56"/>
<path d="M40.7273 167.568H17.3813V168.322H40.7273V167.568Z" fill="#3F3D56"/>
<path d="M40.7273 165.686H17.3813V166.439H40.7273V165.686Z" fill="#3F3D56"/>
</svg>
