<svg width="212" height="180" viewBox="0 0 212 180" fill="none" xmlns="http://www.w3.org/2000/svg">
<path d="M169.22 57.6158V41.8334H183.243V71.0858L169.22 57.6158Z" fill="url(#paint0_linear_1_1144)"/>
<path d="M170.885 58.7091V44.9235H181.343V71.0835L170.885 58.7091Z" fill="#DBB96F"/>
<path d="M194.653 26.1458C201.873 26.1458 207.726 20.293 207.726 13.073C207.726 5.85314 201.873 0.000244141 194.653 0.000244141C187.433 0.000244141 181.58 5.85314 181.58 13.073C181.58 20.293 187.433 26.1458 194.653 26.1458Z" fill="url(#paint1_linear_1_1144)"/>
<path d="M194.653 23.531C200.429 23.531 205.111 18.8488 205.111 13.073C205.111 7.2972 200.429 2.61499 194.653 2.61499C188.877 2.61499 184.195 7.2972 184.195 13.073C184.195 18.8488 188.877 23.531 194.653 23.531Z" fill="#FF9800"/>
<path d="M82.819 72.6062C84.7487 70.3988 86.1821 67.8028 87.0222 64.9938C87.8623 62.1847 88.0896 59.2281 87.6887 56.3236C87.2878 53.4192 86.268 50.6346 84.6984 48.1582C83.1287 45.6818 81.0457 43.5712 78.5902 41.969C79.8604 40.0025 80.534 37.7101 80.5294 35.369C80.6041 32.512 79.6289 29.7267 77.7885 27.5402C75.9481 25.3537 73.37 23.9176 70.5422 23.5037C67.7143 23.0898 64.8328 23.7268 62.443 25.2941C60.0531 26.8615 58.3206 29.2505 57.5734 32.009C56.049 29.3937 53.8677 27.2221 51.2458 25.7091C48.6238 24.1962 45.6521 23.3945 42.625 23.3834C37.9424 23.4366 33.4727 25.3475 30.1989 28.6958C26.925 32.0441 25.1152 36.5557 25.1674 41.2382C25.165 43.339 25.5268 45.4242 26.2366 47.4014C25.8766 47.3726 25.5238 47.3462 25.1674 47.3462C21.406 47.3883 17.8153 48.9227 15.1851 51.6119C12.5549 54.3011 11.1005 57.9248 11.1418 61.6862C11.1418 62.1734 11.1654 62.6558 11.2126 63.1334C8.06507 64.5479 5.39617 66.8462 3.53024 69.749C1.66431 72.6517 0.681681 76.0339 0.701771 79.4846C0.649917 84.1519 2.45376 88.6488 5.71668 91.9864C8.97961 95.3241 13.4345 97.2292 18.1018 97.283C19.1118 97.2817 20.1197 97.1909 21.1138 97.0118C21.061 97.6034 21.031 98.1998 21.031 98.8118C20.9727 104.049 22.997 109.094 26.6587 112.839C30.3203 116.583 35.3193 118.72 40.5562 118.779C44.5421 118.778 48.4282 117.532 51.6718 115.216C54.2835 117.509 57.6399 118.776 61.1158 118.779C65.0284 118.733 68.7626 117.135 71.4977 114.337C74.2328 111.539 75.745 107.769 75.7018 103.857C75.7018 103.497 75.673 103.144 75.649 102.799H75.7018C79.8913 102.752 83.8905 101.042 86.8198 98.0467C89.7491 95.0511 91.3686 91.0146 91.3222 86.825C91.3358 83.905 90.5508 81.0368 89.052 78.5307C87.5533 76.0245 85.3979 73.9759 82.819 72.6062Z" fill="url(#paint2_linear_1_1144)"/>
<path d="M80.563 72.5102C82.375 70.4382 83.721 68.0013 84.5099 65.3643C85.2988 62.7272 85.5123 59.9516 85.1359 57.2249C84.7596 54.4982 83.8022 51.8842 82.3284 49.5594C80.8547 47.2347 78.8989 45.2535 76.5935 43.7498C77.7833 41.9084 78.4155 39.7622 78.4138 37.5698C78.4819 34.8884 77.565 32.2751 75.8366 30.2239C74.1081 28.1728 71.688 26.8262 69.0339 26.4387C66.3798 26.0512 63.6757 26.6497 61.433 28.121C59.1903 29.5924 57.5645 31.8345 56.863 34.4234C55.4328 31.9698 53.3867 29.9323 50.9271 28.5125C48.4675 27.0926 45.6798 26.3397 42.8399 26.3282C38.4444 26.3779 34.2486 28.1714 31.1753 31.3142C28.102 34.4571 26.4028 38.6919 26.4514 43.0874C26.4491 45.0593 26.7885 47.0166 27.4546 48.8726C27.1222 48.8462 26.7886 48.8198 26.4514 48.8198C24.7046 48.8394 22.9788 49.203 21.3725 49.8897C19.7663 50.5765 18.3111 51.573 17.09 52.8223C15.869 54.0717 14.9061 55.5493 14.2563 57.1709C13.6065 58.7925 13.2826 60.5262 13.303 62.273C13.303 62.7314 13.3271 63.1838 13.3691 63.6302C10.4122 64.9559 7.90434 67.1124 6.15056 69.8372C4.39678 72.562 3.47268 75.7378 3.49066 78.9782C3.44169 83.3595 5.13507 87.5808 8.19832 90.7135C11.2616 93.8463 15.4438 95.634 19.8251 95.6834C20.7727 95.6822 21.7184 95.597 22.6511 95.429C22.6031 95.9858 22.573 96.5486 22.573 97.1162C22.5186 102.032 24.4188 106.768 27.8557 110.283C31.2927 113.798 35.9849 115.804 40.9006 115.86C44.6423 115.866 48.2923 114.702 51.3407 112.533C53.7936 114.679 56.9422 115.861 60.2014 115.86C63.874 115.818 67.3796 114.319 69.9474 111.693C72.5152 109.067 73.935 105.529 73.8947 101.856C73.8947 101.521 73.8682 101.193 73.8443 100.863H73.8947C77.8281 100.818 81.5826 99.2121 84.3324 96.3991C87.0822 93.5861 88.6019 89.7961 88.5574 85.8626C88.5717 83.1196 87.8351 80.425 86.4274 78.0707C85.0196 75.7164 82.9946 73.7922 80.5715 72.5066L80.563 72.5102Z" fill="#3F3D56"/>
<path d="M51.6478 51.119H47.3914V157.011H51.6478V51.119Z" fill="url(#paint3_linear_1_1144)"/>
<path d="M50.7431 52.6071H48.6011V157.011H50.7431V52.6071Z" fill="#795548"/>
<path d="M65.9785 64.3967L48.4065 83.3727L49.9781 84.828L67.5501 65.852L65.9785 64.3967Z" fill="#795548"/>
<path d="M31.6111 86.0242L30.3345 87.7443L48.5581 101.27L49.8347 99.5501L31.6111 86.0242Z" fill="#795548"/>
<path d="M56.0819 84.3782C53.2072 81.3195 51.6043 77.2814 51.5987 73.0838C51.6151 70.1874 52.3814 67.3446 53.823 64.8324C55.2646 62.3202 57.3323 60.2242 59.8248 58.7486C58.7136 57.1271 58.1188 55.2075 58.1184 53.2418C58.1413 51.9024 58.4279 50.5806 58.9617 49.3519C59.4956 48.1233 60.2663 47.0118 61.2297 46.081C62.1932 45.1502 63.3306 44.4183 64.5769 43.9271C65.8232 43.4359 67.1541 43.195 68.4936 43.2182C70.708 43.1941 72.8715 43.8824 74.6648 45.1817C76.4582 46.4809 77.7864 48.3222 78.4535 50.4338C79.8683 48.2085 81.8252 46.379 84.1405 45.1169C86.4558 43.8548 89.0538 43.2015 91.6907 43.2182C93.6861 43.1845 95.6686 43.5442 97.525 44.2768C99.3814 45.0093 101.075 46.1003 102.51 47.4876C103.945 48.8748 105.092 50.531 105.887 52.3617C106.681 54.1924 107.107 56.1616 107.141 58.157C107.141 59.9206 106.819 61.6694 106.19 63.317C106.504 63.2942 106.818 63.2726 107.141 63.2726C110.376 63.2177 113.501 64.4498 115.828 66.6981C118.155 68.9463 119.493 72.0267 119.55 75.2619C119.55 75.6659 119.528 76.0696 119.486 76.4714C122.219 77.5738 124.563 79.4621 126.222 81.8973C127.881 84.3324 128.78 87.205 128.806 90.1514C128.771 92.141 128.346 94.1043 127.552 95.9293C126.759 97.7543 125.615 99.4053 124.184 100.788C122.752 102.17 121.063 103.257 119.212 103.987C117.36 104.717 115.384 105.074 113.394 105.04C112.5 105.034 111.608 104.954 110.728 104.8C110.773 105.297 110.801 105.796 110.801 106.305C110.721 110.812 108.855 115.103 105.612 118.235C102.37 121.367 98.0162 123.084 93.5087 123.007C90.0083 123.014 86.5853 121.978 83.6759 120.031C81.3188 121.964 78.3625 123.016 75.3143 123.007C71.9469 123.064 68.6949 121.781 66.2727 119.441C63.8505 117.101 62.4563 113.895 62.3963 110.527C62.3963 110.227 62.4204 109.936 62.442 109.641H62.3963C58.7899 109.701 55.3069 108.328 52.7129 105.821C50.1189 103.315 48.6262 99.8814 48.5627 96.275C48.5814 93.788 49.2955 91.3558 50.6243 89.2534C51.953 87.151 53.8435 85.4623 56.0819 84.3782Z" fill="url(#paint4_linear_1_1144)"/>
<path opacity="0.73" d="M57.4871 84.3243C54.74 81.3943 53.2106 77.5288 53.2091 73.5123C53.2249 70.7401 53.9586 68.0193 55.3386 65.615C56.7186 63.2106 58.6978 61.2047 61.0835 59.7927C60.0143 58.2395 59.4415 56.3984 59.4408 54.5127C59.4853 51.9231 60.5562 49.4572 62.4183 47.657C64.2804 45.8568 66.7811 44.8697 69.3708 44.9127C71.4893 44.892 73.5586 45.552 75.274 46.7954C76.9895 48.0388 78.2604 49.8001 78.8999 51.8199C80.2537 49.6932 82.1249 47.9446 84.3384 46.7379C86.5519 45.5311 89.0353 44.9056 91.5564 44.9199C95.4143 44.8544 99.1404 46.3237 101.915 49.0046C104.69 51.6856 106.287 55.3588 106.355 59.2167C106.358 60.9031 106.052 62.5758 105.454 64.1523C105.754 64.1307 106.054 64.1067 106.36 64.1067C109.456 64.0554 112.446 65.235 114.674 67.3866C116.901 69.5382 118.184 72.4859 118.24 75.5823C118.24 75.9691 118.22 76.3556 118.181 76.7403C120.796 77.7953 123.04 79.6024 124.628 81.9328C126.216 84.2633 127.077 87.0124 127.102 89.8323C127.033 93.6784 125.442 97.3403 122.676 100.014C119.911 102.688 116.197 104.155 112.351 104.093C111.496 104.088 110.643 104.012 109.801 103.865C109.844 104.345 109.87 104.816 109.87 105.305C109.794 109.62 108.008 113.728 104.905 116.727C101.801 119.726 97.6341 121.369 93.3192 121.296C89.9638 121.304 86.6825 120.311 83.8943 118.444C81.6389 120.295 78.8094 121.304 75.8915 121.296C72.6685 121.351 69.5557 120.123 67.2378 117.883C64.9199 115.643 63.5868 112.573 63.5316 109.35C63.5316 109.065 63.5555 108.785 63.5771 108.502H63.5316C60.0799 108.561 56.7461 107.247 54.263 104.848C51.78 102.45 50.3508 99.1639 50.2896 95.7123C50.3028 93.3306 50.9845 91.0005 52.2569 88.9872C53.5294 86.9739 55.3416 85.3583 57.4871 84.3243Z" fill="#3F3D56"/>
<path d="M87.8842 67.5986H83.0422V156.474H87.8842V67.5986Z" fill="url(#paint5_linear_1_1144)"/>
<path d="M86.8811 67.5986H84.2051V156.474H86.8811V67.5986Z" fill="#795548"/>
<path d="M70.897 77.0918L68.9863 78.965L84.8556 95.1516L86.7663 93.2784L70.897 77.0918Z" fill="#795548"/>
<path d="M101.496 95.4864L85.0437 107.032L86.5809 109.222L103.033 97.6769L101.496 95.4864Z" fill="#795548"/>
<path d="M193.989 83.1902H74.6204C71.894 83.1902 69.686 84.4166 69.686 85.9334V173.563H198.926V85.9334C198.931 84.4166 196.718 83.1902 193.989 83.1902Z" fill="url(#paint6_linear_1_1144)"/>
<path d="M133.928 33.0483L71.6565 79.3024V170.223H196.576V82.6011L133.928 33.0483Z" fill="white"/>
<path d="M134.053 88.637C141.711 88.637 147.92 82.4284 147.92 74.7698C147.92 67.1111 141.711 60.9026 134.053 60.9026C126.394 60.9026 120.186 67.1111 120.186 74.7698C120.186 82.4284 126.394 88.637 134.053 88.637Z" fill="url(#paint7_linear_1_1144)"/>
<path d="M108.054 101.512H83.5415V126.024H108.054V101.512Z" fill="url(#paint8_linear_1_1144)"/>
<path d="M184.069 101.512H159.557V126.024H184.069V101.512Z" fill="url(#paint9_linear_1_1144)"/>
<path d="M59.6505 102.367L56.3301 83.795L134.21 23.9426L211.299 84.9902L209.16 101.655L134.198 45.0902L59.6505 102.367Z" fill="url(#paint10_linear_1_1144)"/>
<path d="M59.7981 98.6426L57.5181 85.8098L134.186 25.9838L210.105 85.8146L207.807 98.6354L134.17 40.6058L59.7981 98.6426Z" fill="#DBB96F"/>
<path d="M148.91 129.243H118.95V170.223H148.91V129.243Z" fill="url(#paint11_linear_1_1144)"/>
<path d="M148.043 130.11H119.815V170.223H148.043V130.11Z" fill="#DBB96F"/>
<path d="M107.436 102.377H84.6562V110.425H107.436V102.377Z" fill="#DBB96F"/>
<path opacity="0.2" d="M107.436 110.424H84.6562V125.157H107.436V110.424Z" fill="#DBB96F"/>
<path d="M183.202 102.377H160.423V110.425H183.202V102.377Z" fill="#DBB96F"/>
<path opacity="0.2" d="M183.202 110.424H160.423V125.157H183.202V110.424Z" fill="#DBB96F"/>
<path d="M133.93 87.2737C135.589 87.2736 137.232 86.9465 138.765 86.3111C140.297 85.6757 141.69 84.7444 142.863 83.5706C144.035 82.3968 144.965 81.0034 145.599 79.47C146.233 77.9367 146.559 76.2934 146.557 74.6342H121.301C121.299 76.2935 121.625 77.9369 122.259 79.4703C122.893 81.0037 123.823 82.3972 124.996 83.5711C126.169 84.7449 127.561 85.6761 129.094 86.3114C130.627 86.9467 132.27 87.2737 133.93 87.2737Z" fill="#DBB96F"/>
<path opacity="0.2" d="M133.93 87.1515C137.279 87.1515 140.491 85.821 142.859 83.4526C145.228 81.0843 146.558 77.8721 146.558 74.5227H121.301C121.301 77.8721 122.631 81.0843 125 83.4526C127.368 85.821 130.58 87.1515 133.93 87.1515Z" fill="black"/>
<path opacity="0.2" d="M133.93 62.0175C130.582 62.0175 127.372 63.3463 125.004 65.7121C122.636 68.0778 121.304 71.2869 121.301 74.6342H146.557C146.554 71.2869 145.222 68.0778 142.854 65.7121C140.486 63.3463 137.277 62.0175 133.93 62.0175Z" fill="#DBB96F"/>
<path opacity="0.2" d="M133.93 62.0175C130.582 62.0175 127.372 63.3463 125.004 65.7121C122.636 68.0778 121.304 71.2869 121.301 74.6342H146.557C146.554 71.2869 145.222 68.0778 142.854 65.7121C140.486 63.3463 137.277 62.0175 133.93 62.0175Z" fill="#DBB96F"/>
<path d="M141.48 153.013C143.121 153.013 144.451 151.683 144.451 150.042C144.451 148.401 143.121 147.071 141.48 147.071C139.839 147.071 138.509 148.401 138.509 150.042C138.509 151.683 139.839 153.013 141.48 153.013Z" fill="url(#paint12_linear_1_1144)"/>
<path d="M141.48 152.272C142.711 152.272 143.709 151.274 143.709 150.042C143.709 148.811 142.711 147.813 141.48 147.813C140.248 147.813 139.25 148.811 139.25 150.042C139.25 151.274 140.248 152.272 141.48 152.272Z" fill="#263238"/>
<path d="M151.632 164.404H115.234V176.289H151.632V164.404Z" fill="url(#paint13_linear_1_1144)"/>
<path d="M150.888 165.391H115.976V175.543H150.888V165.391Z" fill="white"/>
<path d="M81.164 136.996C82.0531 135.978 82.7135 134.782 83.1005 133.487C83.4875 132.193 83.5922 130.83 83.4075 129.491C83.2228 128.153 82.7529 126.87 82.0297 125.728C81.3064 124.587 80.3467 123.614 79.2152 122.875C79.8005 121.97 80.111 120.914 80.1092 119.836C80.1427 118.519 79.6926 117.236 78.844 116.229C77.9955 115.222 76.8074 114.561 75.5043 114.37C74.2013 114.18 72.8736 114.473 71.7723 115.195C70.671 115.917 69.8724 117.018 69.5276 118.289C68.825 117.083 67.8193 116.081 66.6102 115.384C65.4011 114.686 64.0307 114.317 62.6348 114.312C60.4761 114.337 58.4155 115.217 56.9062 116.761C55.3969 118.304 54.5624 120.384 54.5864 122.543C54.5837 123.515 54.7502 124.48 55.0784 125.395C54.914 125.383 54.7532 125.369 54.5864 125.369C52.8548 125.389 51.2018 126.095 49.9904 127.332C48.7791 128.57 48.1083 130.237 48.1256 131.969C48.1201 132.192 48.1313 132.416 48.1592 132.637C46.7072 133.289 45.4756 134.348 44.6143 135.686C43.753 137.024 43.299 138.583 43.3076 140.175C43.2836 142.326 44.1153 144.399 45.6197 145.938C47.1241 147.476 49.178 148.354 51.3296 148.378C51.7951 148.379 52.2597 148.339 52.718 148.258C52.694 148.531 52.6796 148.807 52.6796 149.087C52.6547 151.5 53.5883 153.825 55.2757 155.551C56.963 157.277 59.2662 158.263 61.6796 158.292C63.5177 158.292 65.31 157.719 66.806 156.651C68.0089 157.707 69.5549 158.291 71.156 158.292C72.9581 158.269 74.6774 157.532 75.937 156.243C77.1967 154.954 77.8939 153.218 77.876 151.416C77.876 151.252 77.864 151.091 77.852 150.929H77.876C78.8326 150.918 79.7776 150.719 80.6572 150.343C81.5367 149.966 82.3335 149.421 83.0021 148.736C83.6707 148.052 84.198 147.243 84.5538 146.355C84.9097 145.467 85.0871 144.518 85.076 143.561C85.085 142.214 84.7252 140.89 84.0357 139.733C83.3461 138.576 82.353 137.629 81.164 136.996Z" fill="url(#paint14_linear_1_1144)"/>
<path d="M80.1226 136.953C80.9573 135.998 81.5773 134.874 81.9407 133.659C82.3041 132.444 82.4023 131.165 82.2289 129.908C82.0554 128.651 81.6142 127.447 80.9351 126.375C80.2561 125.304 79.3549 124.391 78.2926 123.698C78.8421 122.848 79.1339 121.857 79.1326 120.845C79.1631 119.61 78.7403 118.406 77.9438 117.461C77.1474 116.517 76.0325 115.896 74.8098 115.718C73.5872 115.539 72.3414 115.814 71.3078 116.491C70.2743 117.169 69.5245 118.201 69.2002 119.393C68.541 118.262 67.598 117.323 66.4644 116.669C65.3308 116.014 64.046 115.667 62.737 115.661C60.711 115.684 58.777 116.511 57.3604 117.959C55.9438 119.408 55.1606 121.36 55.183 123.386C55.1822 124.294 55.3389 125.197 55.6462 126.052C55.4938 126.052 55.339 126.028 55.183 126.028C53.5566 126.046 52.004 126.71 50.8668 127.873C49.7297 129.036 49.1011 130.603 49.1194 132.23C49.1142 132.438 49.1246 132.647 49.1506 132.855C47.7866 133.465 46.6294 134.458 45.8198 135.714C45.0102 136.97 44.5831 138.435 44.5906 139.929C44.5678 141.949 45.3484 143.895 46.7606 145.339C48.1727 146.783 50.1008 147.608 52.1206 147.63C52.5573 147.629 52.993 147.589 53.4226 147.51C53.401 147.767 53.3866 148.026 53.3866 148.288C53.361 150.554 54.2365 152.737 55.8206 154.357C57.4047 155.978 59.5675 156.902 61.8334 156.928C63.5587 156.928 65.2411 156.39 66.6454 155.387C67.774 156.378 69.2237 156.925 70.7254 156.928C71.5637 156.919 72.3919 156.744 73.1628 156.415C73.9337 156.085 74.6321 155.607 75.2182 155.007C75.8042 154.408 76.2664 153.699 76.5783 152.92C76.8903 152.142 77.0459 151.31 77.0362 150.472C77.0362 150.317 77.0242 150.166 77.0122 150.014H77.0362C78.8488 149.992 80.5789 149.252 81.8464 147.956C83.1138 146.66 83.815 144.914 83.7958 143.102C83.8017 141.839 83.4627 140.599 82.8153 139.516C82.1679 138.432 81.2369 137.546 80.1226 136.953Z" fill="#3F3D56"/>
<path d="M66.7965 127.094H64.8333V175.905H66.7965V127.094Z" fill="url(#paint15_linear_1_1144)"/>
<path d="M66.3778 127.779H65.3914V175.906H66.3778V127.779Z" fill="#795548"/>
<path d="M73.404 133.203L65.3037 141.951L66.0275 142.621L74.1278 133.873L73.404 133.203Z" fill="#795548"/>
<path d="M57.5588 143.187L56.9709 143.979L65.3706 150.213L65.9585 149.421L57.5588 143.187Z" fill="#795548"/>
<path d="M68.8426 142.423C67.5166 141.013 66.778 139.151 66.7774 137.215C66.7861 135.879 67.1411 134.568 67.8076 133.41C68.4741 132.252 69.4293 131.287 70.5802 130.608C70.065 129.86 69.7888 128.974 69.7882 128.065C69.7987 127.448 69.9307 126.839 70.1767 126.272C70.4227 125.706 70.7779 125.193 71.2219 124.764C71.666 124.335 72.1903 123.998 72.7648 123.771C73.3393 123.545 73.9528 123.434 74.5702 123.444C75.5912 123.432 76.5889 123.749 77.4156 124.349C78.2423 124.948 78.854 125.798 79.1602 126.772C79.8122 125.746 80.7141 124.902 81.7815 124.32C82.8488 123.738 84.0465 123.437 85.2622 123.444C87.1213 123.414 88.9163 124.123 90.2532 125.416C91.59 126.708 92.3595 128.478 92.3926 130.337C92.3933 131.15 92.2453 131.955 91.9558 132.714C92.101 132.714 92.2462 132.693 92.3926 132.693C93.884 132.667 95.3244 133.235 96.3973 134.271C97.4701 135.307 98.0877 136.727 98.1142 138.219C98.1142 138.405 98.1046 138.591 98.0854 138.777C99.3448 139.285 100.425 140.155 101.19 141.278C101.954 142.4 102.369 143.725 102.38 145.083C102.348 146.935 101.581 148.698 100.249 149.985C98.917 151.272 97.1283 151.978 95.2762 151.947C94.8644 151.946 94.4534 151.911 94.0474 151.842C94.069 152.082 94.081 152.301 94.081 152.536C94.045 154.614 93.185 156.593 91.6901 158.037C90.1952 159.482 88.1877 160.273 86.1094 160.237C84.4935 160.242 82.913 159.764 81.5698 158.866C80.4809 159.754 79.1169 160.236 77.7118 160.228C76.9426 160.241 76.1783 160.102 75.4627 159.82C74.747 159.537 74.0941 159.117 73.5411 158.582C72.9881 158.047 72.546 157.408 72.2399 156.702C71.9339 155.996 71.7699 155.237 71.7574 154.468C71.7538 154.331 71.7611 154.194 71.779 154.059H71.7574C70.095 154.087 68.4896 153.453 67.2938 152.298C66.0981 151.143 65.41 149.56 65.3806 147.898C65.39 146.753 65.7192 145.634 66.3309 144.667C66.9426 143.7 67.8126 142.923 68.8426 142.423Z" fill="url(#paint16_linear_1_1144)"/>
<path d="M69.4871 142.398C68.2171 141.047 67.5099 139.262 67.5095 137.408C67.5168 136.13 67.855 134.875 68.4911 133.767C69.1273 132.658 70.0397 131.733 71.1395 131.082C70.6463 130.367 70.3818 129.518 70.3812 128.649C70.402 127.455 70.8959 126.319 71.7544 125.489C72.6129 124.66 73.7656 124.205 74.9592 124.226C75.9355 124.216 76.8891 124.52 77.6797 125.093C78.4703 125.666 79.0562 126.477 79.3511 127.408C79.9755 126.426 80.8389 125.619 81.8605 125.063C82.882 124.506 84.0282 124.218 85.1915 124.226C86.9702 124.195 88.688 124.873 89.9673 126.109C91.2466 127.345 91.9826 129.039 92.0135 130.817C92.0143 131.596 91.8724 132.369 91.5947 133.097C91.7327 133.097 91.8707 133.076 92.0135 133.076C93.4399 133.053 94.8168 133.598 95.8419 134.59C96.867 135.582 97.4564 136.94 97.4807 138.366C97.4804 138.545 97.4708 138.724 97.4519 138.902C98.6575 139.388 99.6918 140.221 100.424 141.295C101.156 142.369 101.553 143.636 101.564 144.936C101.533 146.709 100.799 148.397 99.5241 149.629C98.2489 150.861 96.5368 151.536 94.764 151.506C94.3659 151.507 93.9684 151.473 93.5759 151.407C93.5975 151.625 93.6095 151.846 93.6095 152.07C93.5745 154.059 92.7511 155.952 91.3203 157.334C89.8896 158.716 87.9687 159.473 85.9799 159.438C84.4333 159.443 82.9205 158.986 81.6347 158.127C80.5946 158.979 79.2905 159.443 77.9459 159.438C76.4594 159.464 75.0236 158.898 73.954 157.865C72.8843 156.833 72.2683 155.418 72.2411 153.932C72.2376 153.801 72.2448 153.671 72.2627 153.542H72.2411C71.4532 153.555 70.6702 153.414 69.937 153.125C69.2039 152.836 68.5348 152.405 67.968 151.857C67.4012 151.31 66.9479 150.656 66.6339 149.933C66.3199 149.21 66.1514 148.433 66.1379 147.645C66.1494 146.544 66.4693 145.47 67.0614 144.542C67.6535 143.615 68.4939 142.872 69.4871 142.398Z" fill="#3F3D56"/>
<path d="M83.4993 134.688H81.2673V175.656H83.4993V134.688Z" fill="url(#paint17_linear_1_1144)"/>
<path d="M83.0373 134.688H81.8037V175.656H83.0373V134.688Z" fill="#795548"/>
<path d="M75.6707 139.065L74.7898 139.929L82.1061 147.391L82.987 146.528L75.6707 139.065Z" fill="#795548"/>
<path d="M89.7754 147.541L82.1914 152.863L82.9 153.873L90.4841 148.551L89.7754 147.541Z" fill="#795548"/>
<path d="M21.907 119.737L37.963 136.428L56.1322 119.737" stroke="#37474F" stroke-miterlimit="10"/>
<path d="M16.8382 111.285H6.06335V177.837H16.8382V111.285Z" fill="url(#paint18_linear_1_1144)"/>
<path d="M15.991 112.552H6.90698V175.512H15.991V112.552Z" fill="#F5F5F5"/>
<path d="M67.9666 114.033H3.31543V125.653H67.9666V114.033Z" fill="url(#paint19_linear_1_1144)"/>
<path d="M4.16138 115.3L4.16138 124.384H67.1218V115.3H4.16138Z" fill="#F5F5F5"/>
<path d="M11.5558 121.639C12.6063 121.639 13.4578 120.788 13.4578 119.737C13.4578 118.687 12.6063 117.835 11.5558 117.835C10.5054 117.835 9.65381 118.687 9.65381 119.737C9.65381 120.788 10.5054 121.639 11.5558 121.639Z" fill="url(#paint20_linear_1_1144)"/>
<path d="M62.4728 121.639C63.5232 121.639 64.3748 120.788 64.3748 119.737C64.3748 118.687 63.5232 117.835 62.4728 117.835C61.4224 117.835 60.5708 118.687 60.5708 119.737C60.5708 120.788 61.4224 121.639 62.4728 121.639Z" fill="url(#paint21_linear_1_1144)"/>
<path d="M11.5557 121.216C12.3722 121.216 13.0341 120.554 13.0341 119.737C13.0341 118.921 12.3722 118.259 11.5557 118.259C10.7392 118.259 10.0773 118.921 10.0773 119.737C10.0773 120.554 10.7392 121.216 11.5557 121.216Z" fill="#E6E6E6"/>
<path d="M62.473 121.216C63.2895 121.216 63.9514 120.554 63.9514 119.737C63.9514 118.921 63.2895 118.259 62.473 118.259C61.6565 118.259 60.9946 118.921 60.9946 119.737C60.9946 120.554 61.6565 121.216 62.473 121.216Z" fill="#E6E6E6"/>
<path d="M59.5161 135.37H18.7389V163.047H59.5161V135.37Z" fill="url(#paint22_linear_1_1144)"/>
<path d="M59.197 135.688H19.0546V162.309H59.197V135.688Z" fill="#DBB96F"/>
<path d="M52.0138 139.912H23.7034V142.447H52.0138V139.912Z" fill="white"/>
<path d="M48.9501 144.877H28.8801V147.413H48.9501V144.877Z" fill="white"/>
<path d="M50.6409 149.843H26.3445V152.379H50.6409V149.843Z" fill="white"/>
<path d="M52.3305 154.807H24.0201V157.343H52.3305V154.807Z" fill="white"/>
<path d="M175.575 144.625C174.767 143.7 174.166 142.612 173.814 141.435C173.462 140.258 173.367 139.018 173.535 137.801C173.703 136.584 174.131 135.417 174.789 134.379C175.447 133.341 176.32 132.457 177.349 131.785C176.818 130.963 176.535 130.005 176.536 129.025C176.504 127.827 176.912 126.658 177.683 125.741C178.454 124.823 179.536 124.221 180.722 124.047C181.908 123.874 183.117 124.141 184.119 124.799C185.121 125.457 185.846 126.46 186.158 127.618C186.797 126.521 187.711 125.611 188.81 124.977C189.909 124.343 191.154 124.007 192.423 124.002C194.386 124.024 196.26 124.824 197.633 126.227C199.006 127.63 199.765 129.521 199.743 131.484C199.745 132.365 199.594 133.239 199.297 134.068C199.444 134.068 199.594 134.044 199.743 134.044C201.318 134.062 202.822 134.704 203.923 135.831C205.025 136.957 205.634 138.475 205.616 140.05C205.621 140.252 205.611 140.455 205.585 140.656C206.905 141.248 208.025 142.21 208.808 143.427C209.591 144.643 210.004 146.061 209.996 147.508C210.018 149.464 209.262 151.349 207.894 152.747C206.527 154.146 204.66 154.945 202.704 154.967C202.28 154.964 201.858 154.924 201.441 154.847C201.463 155.087 201.477 155.346 201.477 155.601C201.501 157.795 200.652 159.91 199.118 161.479C197.583 163.048 195.488 163.944 193.293 163.969C191.622 163.97 189.993 163.449 188.632 162.479C187.537 163.44 186.129 163.969 184.672 163.969C183.033 163.95 181.468 163.281 180.321 162.108C179.175 160.936 178.541 159.356 178.56 157.716C178.556 157.568 178.563 157.42 178.581 157.272H178.56C176.804 157.252 175.127 156.536 173.9 155.28C172.672 154.024 171.994 152.332 172.014 150.576C172.009 149.354 172.339 148.154 172.966 147.105C173.594 146.056 174.496 145.199 175.575 144.625Z" fill="url(#paint23_linear_1_1144)"/>
<path d="M176.522 144.587C175.763 143.719 175.2 142.698 174.869 141.593C174.539 140.488 174.45 139.325 174.607 138.183C174.765 137.04 175.166 135.945 175.783 134.971C176.4 133.997 177.22 133.167 178.185 132.537C177.685 131.764 177.42 130.864 177.422 129.944C177.394 128.82 177.778 127.725 178.502 126.865C179.227 126.006 180.241 125.441 181.353 125.279C182.465 125.116 183.598 125.367 184.538 125.983C185.478 126.599 186.16 127.539 186.455 128.623C187.054 127.595 187.913 126.741 188.944 126.146C189.975 125.55 191.144 125.235 192.335 125.23C193.247 125.239 194.148 125.429 194.987 125.787C195.826 126.145 196.586 126.666 197.224 127.318C197.862 127.97 198.365 128.742 198.704 129.589C199.043 130.436 199.212 131.341 199.201 132.253C199.202 133.08 199.059 133.9 198.78 134.677C198.92 134.677 199.058 134.656 199.201 134.656C199.933 134.664 200.657 134.817 201.33 135.105C202.003 135.393 202.613 135.81 203.125 136.334C203.637 136.858 204.041 137.477 204.313 138.157C204.585 138.837 204.721 139.564 204.713 140.296C204.717 140.486 204.708 140.675 204.684 140.863C205.923 141.419 206.974 142.323 207.709 143.465C208.444 144.607 208.831 145.937 208.824 147.295C208.844 149.131 208.135 150.899 206.853 152.211C205.57 153.524 203.819 154.273 201.984 154.295C201.585 154.295 201.188 154.259 200.796 154.188C200.817 154.428 200.829 154.668 200.829 154.901C200.852 156.961 200.055 158.945 198.615 160.418C197.175 161.891 195.209 162.732 193.149 162.756C191.581 162.757 190.052 162.267 188.775 161.356C187.749 162.257 186.43 162.754 185.064 162.756C183.525 162.739 182.056 162.11 180.98 161.01C179.904 159.91 179.31 158.427 179.327 156.888C179.323 156.749 179.33 156.61 179.348 156.472H179.327C177.678 156.453 176.105 155.781 174.953 154.602C173.801 153.424 173.164 151.836 173.183 150.187C173.176 149.038 173.483 147.909 174.072 146.922C174.66 145.935 175.508 145.127 176.522 144.587Z" fill="#3F3D56"/>
<path d="M190.423 135.622H188.637V180H190.423V135.622Z" fill="url(#paint24_linear_1_1144)"/>
<path d="M189.917 136.245H189.018V180H189.917V136.245Z" fill="#795548"/>
<path d="M182.635 141.206L181.975 141.816L189.339 149.769L189.999 149.158L182.635 141.206Z" fill="#795548"/>
<path d="M197.039 150.249L189.401 155.919L189.936 156.64L197.575 150.971L197.039 150.249Z" fill="#795548"/>
<path d="M186.776 149.56C187.981 148.277 188.653 146.584 188.654 144.825C188.649 143.61 188.328 142.417 187.724 141.362C187.12 140.308 186.253 139.428 185.208 138.809C185.674 138.128 185.922 137.322 185.921 136.497C185.9 135.363 185.431 134.285 184.616 133.497C183.8 132.71 182.706 132.278 181.573 132.297C180.646 132.287 179.74 132.576 178.989 133.12C178.238 133.664 177.681 134.435 177.402 135.319C176.809 134.387 175.989 133.62 175.018 133.092C174.048 132.563 172.959 132.289 171.854 132.297C170.165 132.268 168.533 132.911 167.318 134.085C166.103 135.259 165.403 136.868 165.374 138.557C165.374 139.295 165.508 140.027 165.771 140.717C165.641 140.717 165.507 140.698 165.374 140.698C164.018 140.675 162.709 141.191 161.733 142.133C160.758 143.075 160.197 144.366 160.173 145.722C160.173 145.891 160.182 146.06 160.2 146.229C159.055 146.691 158.073 147.482 157.378 148.502C156.682 149.523 156.306 150.726 156.295 151.961C156.324 153.645 157.021 155.248 158.232 156.418C159.443 157.588 161.07 158.23 162.753 158.201C163.128 158.201 163.501 158.169 163.871 158.106C163.851 158.313 163.839 158.525 163.839 158.736C163.872 160.625 164.654 162.424 166.013 163.737C167.372 165.05 169.197 165.77 171.086 165.738C172.555 165.742 173.992 165.307 175.213 164.49C176.202 165.308 177.446 165.755 178.729 165.753C180.14 165.777 181.503 165.239 182.519 164.259C183.534 163.278 184.118 161.934 184.143 160.523C184.146 160.399 184.14 160.275 184.124 160.152H184.143C185.655 160.178 187.115 159.602 188.202 158.551C189.289 157.5 189.914 156.061 189.941 154.549C189.933 153.505 189.632 152.484 189.073 151.601C188.513 150.719 187.718 150.012 186.776 149.56Z" fill="url(#paint25_linear_1_1144)"/>
<path d="M186.191 149.538C187.347 148.312 187.993 146.691 187.997 145.006C187.99 143.844 187.683 142.704 187.104 141.697C186.526 140.689 185.697 139.848 184.698 139.257C185.147 138.605 185.387 137.833 185.388 137.043C185.368 135.958 184.919 134.925 184.139 134.171C183.359 133.417 182.311 133.003 181.226 133.021C180.338 133.012 179.471 133.288 178.752 133.809C178.033 134.331 177.5 135.069 177.233 135.916C176.665 135.023 175.88 134.289 174.951 133.783C174.022 133.277 172.98 133.015 171.923 133.021C170.306 132.994 168.744 133.61 167.581 134.733C166.419 135.857 165.749 137.396 165.721 139.013C165.721 139.72 165.85 140.42 166.101 141.081C165.981 141.081 165.849 141.061 165.721 141.061C164.423 141.039 163.17 141.533 162.237 142.435C161.303 143.337 160.766 144.572 160.743 145.87C160.744 146.03 160.753 146.19 160.77 146.35C159.674 146.792 158.733 147.549 158.068 148.526C157.402 149.502 157.041 150.654 157.031 151.836C157.058 153.448 157.725 154.982 158.884 156.102C160.043 157.223 161.599 157.837 163.211 157.81C163.569 157.81 163.926 157.78 164.28 157.72C164.261 157.919 164.251 158.119 164.251 158.32C164.283 160.128 165.031 161.85 166.331 163.107C167.632 164.364 169.378 165.053 171.187 165.023C172.593 165.028 173.968 164.615 175.137 163.835C176.084 164.608 177.269 165.028 178.491 165.023C179.842 165.044 181.145 164.529 182.116 163.591C183.088 162.653 183.647 161.368 183.673 160.018C183.676 159.897 183.67 159.777 183.654 159.658H183.673C185.12 159.682 186.517 159.131 187.558 158.125C188.598 157.119 189.197 155.742 189.223 154.295C189.212 153.298 188.921 152.324 188.386 151.484C187.85 150.643 187.089 149.969 186.191 149.538Z" fill="#3F3D56"/>
<path d="M175.484 142.529H173.454V179.777H175.484V142.529Z" fill="url(#paint26_linear_1_1144)"/>
<path d="M174.993 142.529H173.871V179.777H174.993V142.529Z" fill="#795548"/>
<path d="M180.571 146.508L173.92 153.292L174.722 154.077L181.373 147.293L180.571 146.508Z" fill="#795548"/>
<path d="M167.746 154.22L167.101 155.139L173.997 159.978L174.641 159.059L167.746 154.22Z" fill="#795548"/>
<defs>
<linearGradient id="paint0_linear_1_1144" x1="169.22" y1="56.4596" x2="183.243" y2="56.4596" gradientUnits="userSpaceOnUse">
<stop stop-color="#808080" stop-opacity="0.251"/>
<stop offset="0.54" stop-color="#808080" stop-opacity="0.122"/>
<stop offset="1" stop-color="#808080" stop-opacity="0.102"/>
</linearGradient>
<linearGradient id="paint1_linear_1_1144" x1="194.653" y1="26.1458" x2="194.653" y2="0.000244141" gradientUnits="userSpaceOnUse">
<stop stop-color="#808080" stop-opacity="0.251"/>
<stop offset="0.54" stop-color="#808080" stop-opacity="0.122"/>
<stop offset="1" stop-color="#808080" stop-opacity="0.102"/>
</linearGradient>
<linearGradient id="paint2_linear_1_1144" x1="46.0119" y1="118.779" x2="46.0119" y2="23.3805" gradientUnits="userSpaceOnUse">
<stop stop-color="#808080" stop-opacity="0.251"/>
<stop offset="0.54" stop-color="#808080" stop-opacity="0.122"/>
<stop offset="1" stop-color="#808080" stop-opacity="0.102"/>
</linearGradient>
<linearGradient id="paint3_linear_1_1144" x1="49.5196" y1="157.011" x2="49.5196" y2="51.119" gradientUnits="userSpaceOnUse">
<stop stop-color="#808080" stop-opacity="0.251"/>
<stop offset="0.54" stop-color="#808080" stop-opacity="0.122"/>
<stop offset="1" stop-color="#808080" stop-opacity="0.102"/>
</linearGradient>
<linearGradient id="paint4_linear_1_1144" x1="88.6841" y1="123.01" x2="88.6841" y2="43.2161" gradientUnits="userSpaceOnUse">
<stop stop-color="#808080" stop-opacity="0.251"/>
<stop offset="0.54" stop-color="#808080" stop-opacity="0.122"/>
<stop offset="1" stop-color="#808080" stop-opacity="0.102"/>
</linearGradient>
<linearGradient id="paint5_linear_1_1144" x1="85.4632" y1="156.474" x2="85.4632" y2="67.5986" gradientUnits="userSpaceOnUse">
<stop stop-color="#808080" stop-opacity="0.251"/>
<stop offset="0.54" stop-color="#808080" stop-opacity="0.122"/>
<stop offset="1" stop-color="#808080" stop-opacity="0.102"/>
</linearGradient>
<linearGradient id="paint6_linear_1_1144" x1="134.306" y1="173.563" x2="134.306" y2="83.1902" gradientUnits="userSpaceOnUse">
<stop stop-color="#808080" stop-opacity="0.251"/>
<stop offset="0.54" stop-color="#808080" stop-opacity="0.122"/>
<stop offset="1" stop-color="#808080" stop-opacity="0.102"/>
</linearGradient>
<linearGradient id="paint7_linear_1_1144" x1="134.053" y1="88.637" x2="134.053" y2="60.9026" gradientUnits="userSpaceOnUse">
<stop stop-color="#808080" stop-opacity="0.251"/>
<stop offset="0.54" stop-color="#808080" stop-opacity="0.122"/>
<stop offset="1" stop-color="#808080" stop-opacity="0.102"/>
</linearGradient>
<linearGradient id="paint8_linear_1_1144" x1="95.7977" y1="126.024" x2="95.7977" y2="101.512" gradientUnits="userSpaceOnUse">
<stop stop-color="#808080" stop-opacity="0.251"/>
<stop offset="0.54" stop-color="#808080" stop-opacity="0.122"/>
<stop offset="1" stop-color="#808080" stop-opacity="0.102"/>
</linearGradient>
<linearGradient id="paint9_linear_1_1144" x1="171.813" y1="126.024" x2="171.813" y2="101.512" gradientUnits="userSpaceOnUse">
<stop stop-color="#808080" stop-opacity="0.251"/>
<stop offset="0.54" stop-color="#808080" stop-opacity="0.122"/>
<stop offset="1" stop-color="#808080" stop-opacity="0.102"/>
</linearGradient>
<linearGradient id="paint10_linear_1_1144" x1="133.815" y1="102.367" x2="133.815" y2="23.9426" gradientUnits="userSpaceOnUse">
<stop stop-color="#808080" stop-opacity="0.251"/>
<stop offset="0.54" stop-color="#808080" stop-opacity="0.122"/>
<stop offset="1" stop-color="#808080" stop-opacity="0.102"/>
</linearGradient>
<linearGradient id="paint11_linear_1_1144" x1="133.93" y1="170.223" x2="133.93" y2="129.243" gradientUnits="userSpaceOnUse">
<stop stop-color="#808080" stop-opacity="0.251"/>
<stop offset="0.54" stop-color="#808080" stop-opacity="0.122"/>
<stop offset="1" stop-color="#808080" stop-opacity="0.102"/>
</linearGradient>
<linearGradient id="paint12_linear_1_1144" x1="141.48" y1="153.013" x2="141.48" y2="147.071" gradientUnits="userSpaceOnUse">
<stop stop-color="#808080" stop-opacity="0.251"/>
<stop offset="0.54" stop-color="#808080" stop-opacity="0.122"/>
<stop offset="1" stop-color="#808080" stop-opacity="0.102"/>
</linearGradient>
<linearGradient id="paint13_linear_1_1144" x1="133.433" y1="176.289" x2="133.433" y2="164.404" gradientUnits="userSpaceOnUse">
<stop stop-color="#808080" stop-opacity="0.251"/>
<stop offset="0.54" stop-color="#808080" stop-opacity="0.122"/>
<stop offset="1" stop-color="#808080" stop-opacity="0.102"/>
</linearGradient>
<linearGradient id="paint14_linear_1_1144" x1="64.1918" y1="158.292" x2="64.1918" y2="114.312" gradientUnits="userSpaceOnUse">
<stop stop-color="#808080" stop-opacity="0.251"/>
<stop offset="0.54" stop-color="#808080" stop-opacity="0.122"/>
<stop offset="1" stop-color="#808080" stop-opacity="0.102"/>
</linearGradient>
<linearGradient id="paint15_linear_1_1144" x1="65.8149" y1="175.905" x2="65.8149" y2="127.094" gradientUnits="userSpaceOnUse">
<stop stop-color="#808080" stop-opacity="0.251"/>
<stop offset="0.54" stop-color="#808080" stop-opacity="0.122"/>
<stop offset="1" stop-color="#808080" stop-opacity="0.102"/>
</linearGradient>
<linearGradient id="paint16_linear_1_1144" x1="83.8804" y1="160.239" x2="83.8804" y2="123.443" gradientUnits="userSpaceOnUse">
<stop stop-color="#808080" stop-opacity="0.251"/>
<stop offset="0.54" stop-color="#808080" stop-opacity="0.122"/>
<stop offset="1" stop-color="#808080" stop-opacity="0.102"/>
</linearGradient>
<linearGradient id="paint17_linear_1_1144" x1="82.3811" y1="175.656" x2="82.3811" y2="134.688" gradientUnits="userSpaceOnUse">
<stop stop-color="#808080" stop-opacity="0.251"/>
<stop offset="0.54" stop-color="#808080" stop-opacity="0.122"/>
<stop offset="1" stop-color="#808080" stop-opacity="0.102"/>
</linearGradient>
<linearGradient id="paint18_linear_1_1144" x1="11.4508" y1="177.837" x2="11.4508" y2="111.285" gradientUnits="userSpaceOnUse">
<stop stop-color="#808080" stop-opacity="0.251"/>
<stop offset="0.54" stop-color="#808080" stop-opacity="0.122"/>
<stop offset="1" stop-color="#808080" stop-opacity="0.102"/>
</linearGradient>
<linearGradient id="paint19_linear_1_1144" x1="35.641" y1="125.653" x2="35.641" y2="114.033" gradientUnits="userSpaceOnUse">
<stop stop-color="#808080" stop-opacity="0.251"/>
<stop offset="0.54" stop-color="#808080" stop-opacity="0.122"/>
<stop offset="1" stop-color="#808080" stop-opacity="0.102"/>
</linearGradient>
<linearGradient id="paint20_linear_1_1144" x1="11.5558" y1="121.639" x2="11.5558" y2="117.835" gradientUnits="userSpaceOnUse">
<stop stop-color="#808080" stop-opacity="0.251"/>
<stop offset="0.54" stop-color="#808080" stop-opacity="0.122"/>
<stop offset="1" stop-color="#808080" stop-opacity="0.102"/>
</linearGradient>
<linearGradient id="paint21_linear_1_1144" x1="62.4728" y1="121.639" x2="62.4728" y2="117.835" gradientUnits="userSpaceOnUse">
<stop stop-color="#808080" stop-opacity="0.251"/>
<stop offset="0.54" stop-color="#808080" stop-opacity="0.122"/>
<stop offset="1" stop-color="#808080" stop-opacity="0.102"/>
</linearGradient>
<linearGradient id="paint22_linear_1_1144" x1="18.7389" y1="149.208" x2="59.5161" y2="149.208" gradientUnits="userSpaceOnUse">
<stop stop-color="#808080" stop-opacity="0.251"/>
<stop offset="0.54" stop-color="#808080" stop-opacity="0.122"/>
<stop offset="1" stop-color="#808080" stop-opacity="0.102"/>
</linearGradient>
<linearGradient id="paint23_linear_1_1144" x1="82.3345" y1="163.969" x2="82.3345" y2="123.995" gradientUnits="userSpaceOnUse">
<stop stop-color="#808080" stop-opacity="0.251"/>
<stop offset="0.54" stop-color="#808080" stop-opacity="0.122"/>
<stop offset="1" stop-color="#808080" stop-opacity="0.102"/>
</linearGradient>
<linearGradient id="paint24_linear_1_1144" x1="121.099" y1="194.246" x2="121.099" y2="149.867" gradientUnits="userSpaceOnUse">
<stop stop-color="#808080" stop-opacity="0.251"/>
<stop offset="0.54" stop-color="#808080" stop-opacity="0.122"/>
<stop offset="1" stop-color="#808080" stop-opacity="0.102"/>
</linearGradient>
<linearGradient id="paint25_linear_1_1144" x1="100.208" y1="165.753" x2="100.208" y2="132.296" gradientUnits="userSpaceOnUse">
<stop stop-color="#808080" stop-opacity="0.251"/>
<stop offset="0.54" stop-color="#808080" stop-opacity="0.122"/>
<stop offset="1" stop-color="#808080" stop-opacity="0.102"/>
</linearGradient>
<linearGradient id="paint26_linear_1_1144" x1="136.174" y1="194.043" x2="136.174" y2="156.795" gradientUnits="userSpaceOnUse">
<stop stop-color="#808080" stop-opacity="0.251"/>
<stop offset="0.54" stop-color="#808080" stop-opacity="0.122"/>
<stop offset="1" stop-color="#808080" stop-opacity="0.102"/>
</linearGradient>
</defs>
</svg>
