<svg width="17" height="14" viewBox="0 0 17 14" fill="none" xmlns="http://www.w3.org/2000/svg">
<path d="M16.1957 2.00081C15.5888 2.26619 14.9482 2.43205 14.2739 2.53157C14.9482 2.1335 15.4877 1.50323 15.7237 0.740263C15.0831 1.10516 14.375 1.37054 13.5995 1.5364C12.9926 0.906124 12.116 0.508057 11.1719 0.508057C9.35119 0.508057 7.86765 1.96764 7.86765 3.75894C7.86765 4.02432 7.90136 4.25653 7.9688 4.48873C5.23772 4.35604 2.77639 3.06232 1.12426 1.07199C0.854521 1.56957 0.685936 2.10033 0.685936 2.69743C0.685936 3.82529 1.25912 4.82045 2.16948 5.41755C1.63001 5.38438 1.12426 5.25169 0.652219 5.01949V5.05266C0.652219 6.64493 1.7986 7.97182 3.31586 8.27037C3.04612 8.33672 2.74267 8.36989 2.43922 8.36989C2.23692 8.36989 2.0009 8.33672 1.7986 8.30354C2.23692 9.59726 3.45073 10.5593 4.90056 10.5593C3.75418 11.4217 2.33807 11.9525 0.787087 11.9525C0.517351 11.9525 0.247615 11.9525 0.0115967 11.9193C1.49514 12.8481 3.21471 13.3789 5.10286 13.3789C11.2056 13.3789 14.5436 8.40306 14.5436 4.09066C14.5436 3.95797 14.5436 3.79211 14.5436 3.65942C15.1842 3.22818 15.7574 2.66426 16.1957 2.00081Z" fill="#27272A"/>
</svg>
