<svg width="21" height="20" viewBox="0 0 21 20" fill="none" xmlns="http://www.w3.org/2000/svg">
<path d="M10.6349 2.38638C13.2546 2.38638 13.5648 2.39603 14.5997 2.44246C15.2219 2.44995 15.8383 2.56236 16.4219 2.7748C16.8451 2.93538 17.2295 3.18138 17.5502 3.49695C17.871 3.81251 18.121 4.19067 18.2842 4.60706C18.5001 5.18124 18.6144 5.7876 18.622 6.39978C18.6687 7.41796 18.679 7.72318 18.679 10.3006C18.679 12.878 18.6692 13.1832 18.622 14.2014C18.6144 14.8135 18.5001 15.4199 18.2842 15.9941C18.121 16.4105 17.871 16.7886 17.5502 17.1042C17.2295 17.4198 16.8451 17.6658 16.4219 17.8263C15.8383 18.0388 15.2219 18.1512 14.5997 18.1587C13.5653 18.2046 13.2551 18.2148 10.6349 18.2148C8.0147 18.2148 7.70447 18.2051 6.67004 18.1587C6.04781 18.1512 5.43149 18.0388 4.84788 17.8263C4.42465 17.6658 4.04029 17.4198 3.71954 17.1042C3.39879 16.7886 3.14876 16.4105 2.98554 15.9941C2.76961 15.4199 2.65535 14.8135 2.64774 14.2014C2.60102 13.1832 2.59074 12.878 2.59074 10.3006C2.59074 7.72318 2.60055 7.41796 2.64774 6.39978C2.65535 5.7876 2.76961 5.18124 2.98554 4.60706C3.14876 4.19067 3.39879 3.81251 3.71954 3.49695C4.04029 3.18138 4.42465 2.93538 4.84788 2.7748C5.43149 2.56236 6.04781 2.44995 6.67004 2.44246C7.70494 2.39649 8.01517 2.38638 10.6349 2.38638ZM10.6349 0.646973C7.97172 0.646973 7.63626 0.658005 6.58968 0.704891C5.77534 0.720827 4.96964 0.872525 4.20685 1.15353C3.55251 1.39609 2.95984 1.77619 2.4702 2.26732C1.97055 2.74923 1.58387 3.33266 1.33718 3.97684C1.05156 4.72731 0.897375 5.51999 0.881178 6.32118C0.834456 7.34993 0.823242 7.67997 0.823242 10.3001C0.823242 12.9202 0.834455 13.2503 0.882112 14.28C0.89831 15.0811 1.0525 15.8738 1.33812 16.6243C1.58454 17.2684 1.97089 17.8518 2.4702 18.3338C2.96011 18.8251 3.55311 19.2052 4.20779 19.4476C4.97057 19.7286 5.77627 19.8803 6.59062 19.8962C7.63719 19.9422 7.97125 19.9542 10.6358 19.9542C13.3004 19.9542 13.6344 19.9431 14.681 19.8962C15.4954 19.8803 16.3011 19.7286 17.0638 19.4476C17.7154 19.1991 18.3071 18.8196 18.8011 18.3333C19.295 17.847 19.6804 17.2646 19.9326 16.6234C20.2182 15.8729 20.3724 15.0802 20.3886 14.279C20.4353 13.2503 20.4465 12.9202 20.4465 10.3001C20.4465 7.67997 20.4353 7.34993 20.3876 6.32026C20.3714 5.51907 20.2173 4.72639 19.9316 3.97592C19.6852 3.33182 19.2989 2.7484 18.7996 2.2664C18.3096 1.77516 17.7166 1.39505 17.062 1.15261C16.2992 0.871606 15.4935 0.719908 14.6791 0.703972C13.6335 0.658005 13.298 0.646973 10.6349 0.646973Z" fill="#27272A"/>
<path d="M10.6331 5.34326C9.63659 5.34326 8.66245 5.63399 7.83387 6.17869C7.00529 6.72338 6.35949 7.49758 5.97814 8.40337C5.59679 9.30917 5.49701 10.3059 5.69142 11.2675C5.88583 12.229 6.3657 13.1123 7.07035 13.8056C7.775 14.4989 8.67278 14.971 9.65015 15.1622C10.6275 15.3535 11.6406 15.2553 12.5613 14.8802C13.4819 14.505 14.2688 13.8696 14.8225 13.0544C15.3761 12.2392 15.6716 11.2808 15.6716 10.3004C15.6716 8.98567 15.1408 7.72481 14.1959 6.79517C13.251 5.86553 11.9694 5.34326 10.6331 5.34326ZM10.6331 13.5181C9.98626 13.5181 9.35394 13.3294 8.8161 12.9758C8.27826 12.6222 7.85906 12.1197 7.61153 11.5317C7.36399 10.9438 7.29922 10.2968 7.42541 9.67263C7.55161 9.04846 7.8631 8.47512 8.32049 8.02511C8.77788 7.57511 9.36064 7.26865 9.99506 7.14449C10.6295 7.02034 11.2871 7.08406 11.8847 7.3276C12.4823 7.57114 12.9931 7.98356 13.3525 8.51271C13.7118 9.04186 13.9037 9.66397 13.9037 10.3004C13.9037 11.1538 13.5591 11.9722 12.9457 12.5756C12.3324 13.1791 11.5005 13.5181 10.6331 13.5181Z" fill="#27272A"/>
<path d="M15.8712 6.30552C16.5215 6.30552 17.0486 5.7869 17.0486 5.14715C17.0486 4.50739 16.5215 3.98877 15.8712 3.98877C15.221 3.98877 14.6938 4.50739 14.6938 5.14715C14.6938 5.7869 15.221 6.30552 15.8712 6.30552Z" fill="#27272A"/>
</svg>
