<svg width="19" height="19" viewBox="0 0 19 19" fill="none" xmlns="http://www.w3.org/2000/svg">
<path fill-rule="evenodd" clip-rule="evenodd" d="M9.56653 0.646973C4.36547 0.646973 0.181152 4.76369 0.181152 9.88074C0.181152 13.959 2.87945 17.4216 6.59449 18.6528C7.06376 18.7298 7.22019 18.4604 7.22019 18.1911C7.22019 17.9603 7.22019 17.3832 7.22019 16.6137C4.6001 17.1908 4.05262 15.3825 4.05262 15.3825C3.62246 14.3053 2.99677 14.0359 2.99677 14.0359C2.13644 13.4588 3.07498 13.4588 3.07498 13.4588C4.01351 13.5358 4.52189 14.4207 4.52189 14.4207C5.34311 15.8442 6.71181 15.421 7.25929 15.1902C7.3375 14.5746 7.57214 14.1898 7.84588 13.959C5.77327 13.7281 3.58335 12.9202 3.58335 9.38058C3.58335 8.38025 3.9353 7.53382 4.561 6.91824C4.48278 6.68739 4.13083 5.76402 4.63921 4.4559C4.63921 4.4559 5.42132 4.22506 7.22019 5.41775C7.96319 5.22538 8.78442 5.10996 9.56653 5.10996C10.3486 5.10996 11.1699 5.22538 11.9129 5.41775C13.7117 4.22506 14.4939 4.4559 14.4939 4.4559C15.0022 5.72554 14.6894 6.64892 14.5721 6.91824C15.1587 7.5723 15.5497 8.38025 15.5497 9.38058C15.5497 12.9202 13.3598 13.6897 11.2481 13.9205C11.6 14.1898 11.8738 14.7669 11.8738 15.6134C11.8738 16.8445 11.8738 17.8449 11.8738 18.1527C11.8738 18.3835 12.0302 18.6913 12.5386 18.6143C16.2536 17.4216 18.9519 13.959 18.9519 9.88074C18.9519 4.76369 14.7676 0.646973 9.56653 0.646973Z" fill="#27272A"/>
</svg>
